<svg width="192" height="46" viewBox="0 0 192 46" fill="none" xmlns="http://www.w3.org/2000/svg">
<g style="mix-blend-mode:luminosity">
<path fill-rule="evenodd" clip-rule="evenodd" d="M166.883 0C152.277 0 141.673 9.69457 141.669 23.0438C141.673 36.5541 152.043 45.9917 166.883 45.9955C181.667 45.9955 191.996 36.5541 192 23.0438C191.996 9.47982 181.667 0.00383488 166.883 0ZM166.782 36.7918C158.942 36.7918 153.387 30.9513 153.387 23.0476C153.387 15.1861 158.604 9.21138 166.77 9.21138H166.794C174.953 9.21138 180.279 15.0519 180.275 23.0476C180.275 31.0357 174.541 36.7918 166.782 36.7918ZM102.166 13.9675C97.7761 14.3855 94.0964 10.8919 94.5362 6.71575C94.859 3.62483 97.4897 1.12833 100.742 0.817703C105.132 0.399701 108.811 3.89328 108.372 8.06946C108.049 11.1604 105.418 13.6569 102.166 13.9675ZM85.4801 30.301L85.4479 30.2703L71.9392 43.1095C69.7443 45.1956 66.1976 45.1956 64.0027 43.1095C61.8077 41.0233 61.8077 37.6524 64.0027 35.5662L77.5113 22.7271L64.0027 9.8879C61.8077 7.80556 61.8077 4.43087 64.0027 2.3447C66.1896 0.266192 69.7523 0.266192 71.9392 2.3447L93.4166 22.7578L85.4801 30.301ZM106.894 35.5662L98.2433 27.3442L90.3068 34.8874L98.9575 43.1094C101.144 45.1879 104.707 45.1879 106.894 43.1094C109.089 41.0233 109.089 37.6486 106.894 35.5662ZM120.094 6.35011C120.094 3.35507 122.656 0.919922 125.807 0.919922C128.958 0.919922 131.52 3.35507 131.52 6.35011V45.1667H120.094V6.35011ZM38.6094 9.14686V6.30905H38.6134C38.6134 3.31018 41.1715 0.878863 44.3267 0.878863C47.482 0.878863 50.04 3.31018 50.04 6.30905V45.1717H38.6134V36.8999C38.6134 36.8999 32.3796 45.9924 21.1506 46C8.89681 45.9924 0 36.34 0 23.0445V23.0023C0 9.70675 8.89681 0.054364 21.1506 0.0466942C32.3755 0.054364 38.6094 9.14686 38.6094 9.14686ZM25.2218 36.7925C32.6902 36.7925 38.6094 31.2856 38.6094 23.0483V23.0023C38.6134 14.7688 32.6902 9.25807 25.2218 9.25807H25.1976C17.2893 9.25807 11.7172 15.3325 11.7172 23.0023V23.0483C11.7131 30.7181 17.2893 36.7925 25.1976 36.7925H25.2218Z" fill="url(#paint0_linear_212_2811)"/>
</g>
<defs>
<linearGradient id="paint0_linear_212_2811" x1="0" y1="23" x2="192" y2="23" gradientUnits="userSpaceOnUse">
<stop stop-color="#B4E300"/>
<stop offset="1" stop-color="#6EC800"/>
</linearGradient>
</defs>
</svg>
