<svg width="133" height="63" viewBox="0 0 133 63" fill="none" xmlns="http://www.w3.org/2000/svg">
<g clip-path="url(#clip0_499_2518)">
<path d="M117.424 52.6252C115.987 51.5398 115.179 49.8454 115.179 48.0718V22.0883H128.088V18.8319H115.179V6.04541H113.783L110.498 9.44723V18.8319H102.093L98.1914 22.0883H110.498V49.8853C110.498 50.9706 110.73 52.0428 111.223 53.0223C111.442 53.4459 111.716 53.896 112.086 54.3327C113.208 55.6829 114.536 56.2918 115.179 56.5299C116.658 57.1786 118.56 57.7478 120.805 57.8801C121.394 57.9066 123.721 58.0124 126.473 57.2316C126.473 57.2316 126.883 57.1125 130.36 55.8814V52.1883C123.53 54.8623 119.642 54.293 117.424 52.6252Z" fill="white"/>
<path d="M107.895 57.8801L92.3723 18.832H80.4629L64.625 57.8801H77.862L74.1113 50.9838H98.3954L94.7404 57.8801H107.895ZM78.8477 50.2954L86.3354 29.2492L92.4407 45.848L78.8477 50.2954Z" fill="url(#paint0_linear_499_2518)"/>
<path d="M50.9652 18.2363C41.2598 18.2363 33.4023 27.105 33.4023 38.0516C33.4023 48.9984 41.2598 57.8801 50.9652 57.8801C60.6705 57.8801 68.5279 49.0115 68.5279 38.0649C68.5279 27.1182 60.6705 18.2363 50.9652 18.2363ZM50.9652 53.8166C43.4225 53.8166 37.3036 46.7613 37.3036 38.0516C37.3036 29.3419 43.4225 22.2868 50.9652 22.2868C58.5077 22.2868 64.6266 29.3419 64.6266 38.0516C64.6266 46.7613 58.5077 53.8166 50.9652 53.8166Z" fill="white"/>
<path d="M31.8543 43.1609C32.8262 38.3692 33.0452 28.8786 27.378 23.4516C14.6749 11.2738 2.82027 23.4516 2.82027 23.4516V9.50011L0.602668 5.93945H-0.300781V54.968C5.27058 57.4565 10.2534 58.2243 14.5517 57.7477C23.6821 56.8344 29.6367 50.4675 31.8543 43.1609ZM2.82027 27.9255V27.8593C2.82027 27.8593 9.13083 17.9187 21.04 22.8957C32.9494 27.8727 31.6627 54.3063 11.9918 53.9355C8.26834 53.8694 5.24317 53.062 2.82027 52.175V27.9255Z" fill="white"/>
</g>
<defs>
<linearGradient id="paint0_linear_499_2518" x1="64.6266" y1="38.3547" x2="107.889" y2="38.3547" gradientUnits="userSpaceOnUse">
<stop stop-color="#D82028"/>
<stop offset="1" stop-color="#D82028"/>
</linearGradient>
<clipPath id="clip0_499_2518">
<rect width="132.799" height="62.1612" fill="white" transform="translate(0 0.838867)"/>
</clipPath>
</defs>
</svg>
