<svg width="98" height="76" viewBox="0 0 98 76" fill="none" xmlns="http://www.w3.org/2000/svg">
<g style="mix-blend-mode:luminosity" clip-path="url(#clip0_212_2809)">
<path d="M26.613 47.1263C24.1074 47.4784 22.0539 47.1571 20.4527 46.1645C18.8538 45.1715 17.8981 43.5798 17.5933 41.411C17.3053 39.3618 17.7572 37.674 18.9485 36.3295C20.1399 34.9851 21.8686 34.1525 24.1349 33.834C26.1642 33.5488 27.7682 33.7097 28.9915 34.3285C30.2148 34.9472 30.9103 36.0062 31.1258 37.5392C31.2151 38.175 31.0599 38.8068 30.6593 39.412C30.2587 40.0173 29.6991 40.5207 28.9658 40.9287C28.2324 41.3368 27.4595 41.608 26.6044 41.7282C25.5299 41.8792 24.4676 41.6829 23.4007 41.1641C23.2017 41.0498 23.0764 41.0267 22.968 41.1233C22.8596 41.2198 22.9219 41.3737 23.0695 41.5563C23.3617 42.0439 23.8539 42.3791 24.5738 42.5829C25.2915 42.787 25.989 42.8313 26.7245 42.7279C27.6794 42.5938 28.4579 42.3623 29.0629 42.0537C29.6678 41.745 30.2498 41.2566 30.8446 40.5856C31.0131 40.3383 31.2041 40.2504 31.4352 40.3196C31.6685 40.3885 31.819 40.591 31.9289 40.9392C32.2647 42.1707 32.5465 43.3081 32.729 44.3171C32.8249 44.7103 32.7243 45.0068 32.4532 45.2483C31.374 46.089 29.4151 46.7302 26.6127 47.1241L26.613 47.1263ZM24.7454 40.0421C25.0245 40.0029 25.2304 39.8926 25.3846 39.688C25.5388 39.4833 25.5878 39.2528 25.5489 38.9759C25.4483 38.2603 25.039 37.9518 24.3035 38.0552C23.9645 38.1028 23.7016 38.2415 23.4932 38.4944C23.2847 38.7474 23.1987 39.0034 23.2404 39.3003C23.2822 39.5971 23.4529 39.7991 23.774 39.9143C24.0952 40.0296 24.4263 40.087 24.7454 40.0421Z" fill="#73382A"/>
<path d="M37.5227 45.5127C36.5678 45.6469 35.4678 45.7608 34.2676 45.8685C34.0853 45.8738 33.9146 45.8164 33.7576 45.6962C33.5985 45.5762 33.5162 45.4251 33.491 45.2457C32.9175 41.165 32.5714 37.2556 32.4477 33.498C32.4253 33.3385 32.4854 33.1877 32.6082 33.0485C32.7309 32.9092 32.8621 32.8298 33.0337 32.765C33.5415 32.6327 34.4331 32.4667 35.7047 32.288C37.0561 32.0981 38.0536 31.9782 38.7 31.9484C38.9421 31.9347 39.1355 32.0091 39.2981 32.1693C39.4629 32.3291 39.5109 32.5257 39.5018 32.7506C39.4615 34.0553 39.5153 35.306 39.6831 36.5001C39.7055 36.6596 39.7622 36.7737 39.8305 36.8251C39.8987 36.8765 39.9812 36.8852 40.0498 36.7942C40.1183 36.7033 40.147 36.6179 40.1473 36.4756C40.2026 34.8435 40.4313 33.5937 40.875 32.6999C41.3165 31.8065 41.9982 31.3041 42.8932 31.1783C43.8679 31.0413 44.7109 31.2685 45.4189 31.8377C45.6747 32.0661 45.8164 32.3511 45.8438 32.6907C45.915 33.7763 46.0217 35.5483 46.1231 37.9897C46.1225 38.2744 46.0281 38.4707 45.82 38.5813C45.6119 38.6919 45.4013 38.6401 45.196 38.4657C44.7241 38.1457 44.2858 37.9045 43.8789 37.7584C43.4721 37.6123 42.9818 37.5795 42.4257 37.6577C41.8298 37.7414 41.3051 38.0591 40.873 38.5852C40.4413 39.1136 40.263 39.726 40.3583 40.4039C40.5065 41.4584 40.7967 42.6556 41.249 43.9927C41.3197 44.2064 41.305 44.3915 41.1879 44.5706C41.0707 44.7497 40.9053 44.8746 40.7137 44.9422C40.3006 45.0409 39.2539 45.2287 37.5636 45.4663L37.5293 45.5117L37.5227 45.5127Z" fill="#73382A"/>
<path d="M54.7366 43.174C53.6821 43.3222 52.5566 43.3991 51.3252 43.4298C50.0915 43.4609 49.009 43.4097 48.0205 43.3046C47.7302 43.2641 47.5654 43.1043 47.5056 42.8077C47.3008 41.6392 47.1133 40.3055 46.9262 38.8295C46.8898 38.5703 46.9842 38.374 47.2151 38.2806C47.4459 38.1872 47.6487 38.1993 47.8904 38.328C49.3358 38.9359 50.7233 39.1475 52.0968 38.9545C53.1713 38.8035 53.6511 38.4718 53.5785 37.9556C53.5561 37.7961 53.4168 37.6733 53.1835 37.6044C52.9502 37.5356 52.6393 37.4776 52.272 37.4682C51.9047 37.4589 51.497 37.4348 51.067 37.4139C50.6371 37.393 50.1839 37.3347 49.7428 37.2341C49.3017 37.1334 48.8771 36.9898 48.4846 36.8009C48.0921 36.6121 47.7476 36.3149 47.4669 35.9093C47.1859 35.5015 46.9938 35.0021 46.9097 34.4039C46.7335 33.15 47.1382 32.1398 48.1114 31.4134C49.0847 30.687 50.6336 30.1666 52.7825 29.8646C54.9314 29.5626 56.9034 29.4481 58.5616 29.5607C58.8519 29.6012 59.0366 29.7582 59.093 30.0146C59.4508 31.548 59.7099 32.6682 59.8731 33.3953C59.9067 33.6346 59.8522 33.8253 59.6868 33.9502C59.5213 34.0751 59.3014 34.0856 59.0597 33.957C57.9778 33.621 56.8872 33.5123 55.79 33.6461C54.4358 33.8161 53.7915 34.1506 53.8613 34.6469C53.8865 34.8263 54.0257 34.9491 54.2989 35.0124C54.5722 35.0756 54.903 35.1308 55.3329 35.1517C55.7628 35.1726 56.2076 35.1711 56.7151 35.1811C57.2225 35.1911 57.7179 35.2435 58.2365 35.3332C58.7552 35.423 59.2246 35.5807 59.677 35.7611C60.1293 35.9415 60.4965 36.2559 60.8199 36.6758C61.1435 37.098 61.3357 37.5973 61.4226 38.2154C61.6016 39.4893 61.1227 40.5506 59.9669 41.4246C58.8108 42.2965 57.0883 42.8842 54.802 43.2055L54.7366 43.174Z" fill="#73382A"/>
<path d="M70.2907 40.9876C67.7852 41.3398 65.7316 41.0184 64.1305 40.0258C62.5315 39.0328 61.5759 37.4412 61.2711 35.2723C60.9831 33.2231 61.4349 31.5353 62.6263 30.1909C63.8176 28.8464 65.5463 28.0138 67.8127 27.6953C69.8419 27.4101 71.4459 27.571 72.6692 28.1898C73.8925 28.8086 74.5881 29.8675 74.8035 31.4005C74.8929 32.0363 74.7377 32.6681 74.337 33.2734C73.9364 33.8786 73.3768 34.382 72.6435 34.79C71.9101 35.1981 71.1372 35.4694 70.2821 35.5896C69.2077 35.7406 68.1454 35.5442 67.0785 35.0255C66.8794 34.9111 66.7542 34.888 66.6457 34.9846C66.5373 35.0812 66.5996 35.2351 66.7473 35.4176C67.0394 35.9052 67.5316 36.2404 68.2515 36.4442C68.9693 36.6483 69.6668 36.6926 70.4023 36.5893C71.3571 36.4551 72.1356 36.2237 72.7406 35.915C73.3456 35.6063 73.9276 35.1179 74.5223 34.4469C74.6909 34.1996 74.8818 34.1118 75.1129 34.1809C75.3463 34.2498 75.4967 34.4523 75.6067 34.8006C75.9424 36.032 76.2243 37.1694 76.4067 38.1785C76.5026 38.5716 76.402 38.8682 76.1309 39.1096C75.0518 39.9503 73.0951 40.5913 70.2904 40.9854L70.2907 40.9876ZM68.4231 33.9035C68.7022 33.8642 68.9081 33.754 69.0624 33.5493C69.2166 33.3446 69.2655 33.1141 69.2266 32.8372C69.126 32.1216 68.7167 31.8132 67.9812 31.9165C67.6422 31.9642 67.3793 32.1028 67.1709 32.3557C66.9625 32.6087 66.8765 32.8648 66.9182 33.1616C66.9599 33.4585 67.1306 33.6604 67.4496 33.776C67.7711 33.8934 68.1019 33.9486 68.4209 33.9038L68.4231 33.9035Z" fill="#73382A"/>
<path d="M85.1593 44.4692C83.0271 44.8254 80.799 44.8538 78.6324 44.8692C78.3863 44.8699 78.1262 44.868 77.9237 44.7293C77.6312 44.5287 77.5708 44.1305 77.5393 43.778C77.42 42.5116 77.2989 41.2477 77.1796 39.9813C77.1595 39.774 77.1474 39.543 77.2813 39.3864C77.477 39.1556 77.8439 39.226 78.1354 39.307C79.7767 39.7654 81.5382 39.938 83.1872 39.503C84.8362 39.0679 86.0385 37.9456 86.6097 37.1875C87.1809 36.4295 87.5857 35.5164 87.6439 34.7085C87.6605 34.4893 87.6655 34.2514 87.5406 34.0702C87.4157 33.8889 87.109 33.8281 86.983 34.0085C86.9284 34.0862 86.9243 34.1861 86.9175 34.282C86.8813 34.8767 86.7722 35.1292 86.613 35.6034C86.39 36.2673 86.0802 36.7153 85.6161 37.2391C85.0528 37.8763 84.2518 38.2531 83.4438 38.5158C82.5364 38.8105 81.5761 38.9861 80.6249 38.9052C79.6738 38.8243 78.7279 38.476 78.0267 37.8268C77.2867 37.1423 76.8637 36.1739 76.653 35.1892C76.4423 34.2044 76.4218 33.1907 76.3684 32.1839C76.3102 31.0625 76.2112 29.94 76.2112 28.815C76.2116 28.2547 76.2369 27.6954 76.3055 27.139C76.3649 26.645 76.921 26.5352 77.3439 26.4577C79.0204 26.1543 80.7101 25.9281 82.4078 25.7754C82.6287 25.7556 82.8638 25.7407 83.0572 25.8468C83.4683 26.0714 83.4486 26.6547 83.3963 27.1184C83.2633 28.2622 83.2547 29.4223 83.3704 30.5672C83.4354 31.2065 83.5444 31.8531 83.8411 32.4213C84.0421 32.8065 84.4411 33.1864 84.8578 33.0646C85.257 32.9475 85.3986 32.46 85.4356 32.0481C85.6099 30.1057 84.9156 28.2039 84.5976 26.2786C84.5711 26.122 84.5499 25.9555 84.6082 25.8073C84.7167 25.5345 85.044 25.4365 85.3311 25.3736C86.9999 25.0148 88.6969 24.7763 90.3999 24.6612C90.7154 24.6394 91.0672 24.6352 91.3024 24.8461C91.4941 25.0202 91.5526 25.2921 91.6017 25.545C92.1396 28.3272 92.6749 31.1075 93.2127 33.8897C93.5598 35.6844 93.8994 37.5863 93.271 39.3034C92.7081 40.8442 91.4219 42.028 89.9976 42.8404C88.4982 43.6972 86.8592 44.1874 85.1596 44.4714L85.1593 44.4692Z" fill="#73382A"/>
<path d="M9.63086 32.7864L72.0721 22.8294C72.3307 22.7885 72.2898 22.4012 72.0278 22.4177C61.5095 23.0781 34.8015 23.6788 24.113 24.3497C23.851 24.3662 23.8079 23.9791 24.0687 23.938L88.3636 14.7993" stroke="#F6CC47" stroke-width="15.7753" stroke-linecap="round" stroke-linejoin="round"/>
<path d="M78.5758 3.25237C67.457 2.66206 47.1819 5.97693 46.4334 6.1002C46.4334 6.1002 46.4267 6.10113 46.4223 6.10176C46.4156 6.10269 46.4112 6.10331 46.4112 6.10331C45.6665 6.23735 25.4481 9.89213 15.1665 14.1655C6.90434 17.6016 6.62534 23.1554 6.87473 25.3478C6.92994 25.8371 7.4212 26.1498 7.88633 25.9873C27.0079 19.351 47.3889 16.2585 48.1389 16.1463C48.1389 16.1463 48.1456 16.1453 48.15 16.1447C48.1567 16.1438 48.1611 16.1432 48.1611 16.1432C48.9043 15.9981 69.1425 12.0988 89.3826 11.9584C89.8768 11.9544 90.2369 11.4949 90.1263 11.0134C89.6272 8.86061 87.503 3.72822 78.5739 3.25489L78.5758 3.25237Z" fill="#FBB03B"/>
<path d="M38.5003 59.1816C37.7854 59.3995 36.9677 59.5935 36.0639 59.7205C35.16 59.8476 34.3233 59.9064 33.5733 59.874C32.8232 59.8416 32.1027 59.7463 31.4258 59.5274C30.7468 59.3089 30.1571 59.019 29.672 58.6376C29.1866 58.254 28.76 57.7266 28.4299 57.0659C28.1021 56.4048 27.8589 55.6551 27.7347 54.7712C27.4426 52.6931 27.901 50.9231 29.1072 49.4591C30.3134 47.9951 32.0343 47.1071 34.2474 46.7961C35.6919 46.5931 37.0195 46.7002 38.2344 47.0987C39.4494 47.4973 40.4267 48.1823 41.2113 49.1518C41.9956 50.1192 42.4739 51.2877 42.6685 52.6724C42.7927 53.5563 42.7883 54.3611 42.6327 55.0698C42.477 55.7784 42.23 56.4005 41.872 56.923C41.5139 57.4455 41.0444 57.882 40.4513 58.259C39.8559 58.6364 39.2123 58.9437 38.5003 59.1816ZM35.4016 55.0084C35.7871 54.9543 36.0913 54.7556 36.2955 54.3926C36.4998 54.0295 36.5583 53.6101 36.4879 53.1095C36.4176 52.6088 36.2404 52.1841 35.9387 51.8538C35.637 51.5234 35.3048 51.3939 34.9193 51.4481C34.5338 51.5023 34.2125 51.7236 34.0335 52.1215C33.8545 52.5195 33.7788 52.9616 33.8517 53.48C33.9245 53.9984 34.0967 54.3876 34.3903 54.6603C34.6839 54.9331 35.0361 55.0598 35.4193 55.006L35.3994 55.0088L35.4016 55.0084Z" fill="#73382A"/>
<path d="M51.7055 57.5027C49.2796 57.8436 47.2957 57.5351 45.7467 56.5758C44.1998 55.6161 43.2767 54.0787 42.9821 51.9829C42.7038 50.0024 43.1409 48.3709 44.2936 47.0725C45.4463 45.7742 47.1179 44.97 49.3112 44.6617C51.274 44.3859 52.8274 44.5403 54.0093 45.1378C55.1915 45.7375 55.8659 46.7587 56.0742 48.2408C56.1607 48.8566 56.0113 49.465 55.6215 50.0507C55.2335 50.6339 54.6923 51.1233 53.9818 51.5169C53.2713 51.9104 52.5243 52.1735 51.6958 52.29C50.6568 52.436 49.6293 52.2461 48.5965 51.7451C48.4047 51.6342 48.2842 51.6128 48.1777 51.7068C48.0734 51.8005 48.1325 51.9481 48.2748 52.1247C48.5557 52.5958 49.0349 52.9192 49.7292 53.1176C50.4232 53.3137 51.0979 53.3567 51.8091 53.2568C52.7329 53.1269 53.4854 52.9037 54.0714 52.6045C54.6577 52.3075 55.2194 51.8354 55.7945 51.1853C55.9573 50.9456 56.142 50.8609 56.3661 50.9288C56.5922 50.9941 56.7373 51.1906 56.8434 51.5281C57.1666 52.7184 57.4406 53.8163 57.6162 54.7924C57.7081 55.1726 57.6106 55.4596 57.3497 55.6928C56.305 56.5061 54.4107 57.1247 51.6969 57.5061L51.7055 57.5027ZM49.8987 50.6584C50.1689 50.6205 50.3685 50.5133 50.517 50.3163C50.6655 50.1192 50.7132 49.8956 50.6755 49.6275C50.5784 48.9364 50.1839 48.6371 49.4705 48.7374C49.1427 48.7834 48.8883 48.9186 48.6853 49.1617C48.4848 49.4068 48.4019 49.6534 48.4424 49.9414C48.4829 50.2294 48.6479 50.4231 48.9574 50.5354C49.2669 50.6478 49.5885 50.702 49.8964 50.6588L49.8987 50.6584Z" fill="#73382A"/>
<path d="M60.0965 50.9219L59.3779 50.2774C59.1979 50.1061 59.1166 49.9617 59.1176 49.8237C59.1185 49.6858 59.2147 49.5345 59.386 49.3545C59.664 49.0986 59.8795 48.8153 59.9713 48.4883C60.0355 48.3822 60.0445 48.3018 59.991 48.21C59.9399 48.12 59.8368 48.0938 59.7045 48.1328C59.0939 48.257 58.5232 48.1022 57.9898 47.6666C57.4564 47.231 57.1342 46.6099 57.0209 45.8035C56.9075 44.9971 57.0804 44.2657 57.5511 43.7093C58.0219 43.1529 58.663 42.8279 59.5115 42.7086C60.36 42.5894 61.0888 42.7603 61.6857 43.2457C62.2848 43.7308 62.6381 44.4447 62.7732 45.4062C62.9302 46.5227 62.823 47.577 62.4893 48.5456C62.1555 49.5143 61.6601 50.3294 61.0193 50.93C60.7061 51.209 60.3901 51.1947 60.0741 50.907L60.0968 50.9241L60.0965 50.9219Z" fill="#73382A"/>
<path d="M71.7106 54.6907C70.6915 54.8339 69.6017 54.908 68.4089 54.9401C67.2158 54.9699 66.1696 54.9204 65.2134 54.8199C64.9323 54.7803 64.7751 54.6262 64.7146 54.341C64.5176 53.212 64.3364 51.9227 64.1542 50.4979C64.119 50.2476 64.2099 50.0586 64.4322 49.9686C64.6545 49.8786 64.8526 49.8892 65.087 50.0144C66.4844 50.6019 67.8279 50.8062 69.1549 50.6197C70.1939 50.4737 70.6594 50.153 70.5891 49.6523C70.5676 49.4994 70.4334 49.3805 70.207 49.3129C69.981 49.2475 69.6793 49.1905 69.3256 49.1815C68.9719 49.1725 68.5755 49.1491 68.1592 49.1286C67.7451 49.1077 67.3036 49.0523 66.8789 48.9561C66.4542 48.8599 66.0416 48.7213 65.6614 48.5398C65.2835 48.358 64.9472 48.0709 64.6772 47.6773C64.4073 47.2838 64.2195 46.7996 64.1386 46.2236C63.9683 45.0118 64.3619 44.0348 65.3025 43.3333C66.2431 42.6318 67.7423 42.1274 69.8203 41.8353C71.8983 41.5433 73.8051 41.4312 75.4108 41.5399C75.692 41.5794 75.8691 41.7308 75.9242 41.9783C76.2701 43.4591 76.5195 44.5423 76.6771 45.2454C76.7094 45.4758 76.6562 45.6594 76.4971 45.7812C76.338 45.903 76.1225 45.9129 75.8903 45.7874C74.8441 45.4646 73.7898 45.3574 72.7281 45.4863C71.416 45.6504 70.7952 45.9749 70.8627 46.4556C70.887 46.6284 71.0212 46.7473 71.2849 46.8074C71.5486 46.8675 71.8703 46.9217 72.2841 46.9404C72.6982 46.9612 73.1316 46.959 73.6232 46.969C74.1149 46.979 74.5941 47.0291 75.0963 47.1144C75.5985 47.1997 76.0515 47.3529 76.4893 47.5263C76.9249 47.7001 77.2814 48.0024 77.594 48.4103C77.9066 48.8182 78.0919 49.3004 78.1756 49.8964C78.3487 51.1281 77.8851 52.1534 76.7658 52.9975C75.6486 53.8413 73.9819 54.4076 71.7687 54.7186L71.7058 54.6891L71.7106 54.6907Z" fill="#73382A"/>
<path d="M10.5018 54.5138C9.44762 54.5354 8.38725 54.3365 7.41343 53.9177C7.11821 53.7942 6.21173 53.2597 6.14199 52.7635C5.96795 51.5251 6.7451 50.0785 6.96255 49.6164C7.1957 48.9285 7.53432 48.3319 7.74186 47.6386C7.81072 47.4053 7.93847 47.1569 8.16455 47.0777C8.32413 47.0236 8.49678 47.0626 8.65199 47.1221C9.33287 47.3856 10.2926 47.8968 10.9017 48.2766C12.8919 49.5783 13.996 51.0045 14.7279 50.2488C15.36 49.4573 10.541 47.0441 10.2872 45.2386C9.64712 40.5234 9.40231 39.3763 8.83125 36.7275C8.80915 36.5703 8.84592 36.3979 8.96207 36.2438C9.07949 36.0827 9.22589 35.9831 9.39751 35.9183C10.0534 35.7628 11.0691 35.5794 12.4426 35.3864C13.2291 35.2759 14.0388 35.2027 14.8517 35.1517C15.029 35.1268 15.1953 35.1848 15.3292 35.2857C15.4634 35.3888 15.5606 35.5175 15.6051 35.6739C15.9679 37.1297 16.3743 39.0087 16.8176 41.3275C17.2632 43.646 17.2567 43.3261 17.5512 45.4218C17.7112 46.5605 17.7068 47.7734 17.5512 48.8842C17.3933 49.9952 17.1281 51.3007 16.4953 52.151C15.7206 53.1974 14.7296 53.6846 13.5272 54.1631C12.7137 54.483 11.3754 54.4927 10.4993 54.5119L10.5044 54.5157L10.5018 54.5138Z" fill="#73382A"/>
<path d="M20.7479 67.5812C19.6937 67.6028 18.6333 67.4039 17.6595 66.985C17.3643 66.8616 16.4578 66.3271 16.3881 65.8308C16.214 64.5925 16.9912 63.1458 17.2086 62.6838C17.4418 61.9959 17.7804 61.3993 17.9879 60.706C18.0568 60.4726 18.1846 60.2243 18.4106 60.145C18.5702 60.091 18.7429 60.13 18.8981 60.1895C19.579 60.453 20.5387 60.9642 21.1478 61.344C23.138 62.6457 24.2421 64.0719 24.974 63.3161C25.606 62.5247 20.787 60.1115 20.5333 58.306C19.8932 53.5908 19.6484 52.4437 19.0773 49.7949C19.0552 49.6376 19.092 49.4653 19.2082 49.3112C19.3256 49.1501 19.472 49.0504 19.6436 48.9856C20.2995 48.8302 21.3152 48.6468 22.6887 48.4538C23.4752 48.3432 24.2849 48.2701 25.0978 48.2191C25.2751 48.1942 25.4414 48.2522 25.5753 48.3531C25.7095 48.4562 25.8066 48.5849 25.8512 48.7413C26.214 50.1971 26.6204 52.0761 27.0637 54.3949C27.5093 56.7134 27.5027 56.3935 27.7973 58.4892C27.9573 59.6279 27.9529 60.8408 27.7973 61.9515C27.6394 63.0626 27.3742 64.3681 26.7414 65.2184C25.9667 66.2648 24.9757 66.752 23.7733 67.2305C22.9598 67.5504 21.6215 67.56 20.7454 67.5792L20.7505 67.5831L20.7479 67.5812Z" fill="#73382A"/>
<path d="M94.6997 49.8374C75.3946 56.0996 54.9215 58.5364 54.1702 58.6239C54.1702 58.6239 54.1657 58.6246 54.1591 58.6255C54.1524 58.6264 54.148 58.627 54.148 58.627C53.5961 58.7182 42.5013 60.5169 28.635 61.1938C28.6381 61.216 28.6412 61.2381 28.6443 61.2603C28.9688 65.0925 26.8899 67.8168 22.0062 68.5684C20.691 68.7103 19.3181 68.6186 18.0395 68.2494C17.06 67.9668 15.2325 66.8908 15.0881 65.4291C15.077 65.3177 15.0769 65.2048 15.0882 65.0925C15.1238 64.7667 15.2615 64.4604 15.3957 64.1614C15.6179 63.6693 15.8405 63.1795 16.0628 62.6874C16.1696 62.451 16.2784 62.212 16.3852 61.9756C16.3852 61.9756 16.3849 61.9734 16.3868 61.9709C16.5025 61.7174 16.3333 61.4294 16.0549 61.4256C14.9118 61.4101 13.7669 61.3812 12.6205 61.3413C12.2298 61.3261 11.9211 61.67 11.9823 62.0567C12.3229 64.1753 14.102 70.1469 23.3847 71.0631C34.4929 72.1564 54.8621 69.4789 55.6141 69.38C55.6141 69.38 55.6207 69.3791 55.6251 69.3785C55.6318 69.3775 55.6362 69.3769 55.6362 69.3769C56.3863 69.2647 76.7045 66.2239 87.1031 62.108C95.5584 58.76 95.8922 52.7603 95.6819 50.4765C95.6371 49.9971 95.1573 49.685 94.6994 49.8352L94.6997 49.8374Z" fill="#FBB03B"/>
<g clip-path="url(#clip1_212_2809)">
<path d="M40.3618 67.5384L40.2889 67.5388L40.244 67.5532L40.1711 67.5536L40.1205 67.5453L40.0569 67.527L39.9833 67.5216L39.9219 67.5206L39.8562 67.5084L39.8081 67.4968L39.6744 67.4551L39.6091 67.4458L39.548 67.4242L39.4891 67.3965L39.4338 67.3742L39.3914 67.3385L39.3324 67.3108L39.266 67.2694L39.1279 67.1463L39.0984 67.0973L39.0478 67.0656L39.0078 67.0033L38.9657 66.9472L38.9427 66.9032L38.8992 66.8589L38.8783 66.7854L38.8426 66.7343L38.8286 66.6687L38.8159 66.6147L38.7864 66.5657L38.7727 66.5031L38.7737 66.4414L38.7581 66.3644L38.7444 66.3017L38.7379 66.2498L38.7359 66.1183L38.7207 66.0441L38.7138 65.9893L38.718 65.9303L38.7176 65.8571L38.7084 65.7382L38.6886 65.6734L38.6907 65.6204L38.6967 65.5524L38.684 65.4983L38.677 65.3733L38.6766 65.3002L38.661 65.1763L38.6523 65.1071L38.6626 65.0502L38.6593 64.9774L38.6696 64.9205L38.6842 64.8513L38.6924 64.8005L38.7031 64.7464L38.7141 64.6719L38.7338 64.6196L38.7495 64.5591L38.7853 64.496L38.7914 64.4513L38.8344 64.3757L38.8515 64.3267L38.8963 64.2888L38.9311 64.2405L39.0153 64.145L39.0677 64.0974L39.1003 64.0552L39.167 64.0059L39.2104 63.9799L39.2564 63.9507L39.3041 63.9125L39.3715 63.8689L39.4899 63.8364L39.5473 63.8057L39.6055 63.7808L39.66 63.774L39.7361 63.7527L39.7986 63.7389L39.8495 63.7267L39.9069 63.696L40.0304 63.6805L40.225 63.6735L40.3036 63.6724L40.3575 63.6598L40.4311 63.6651L40.4828 63.682L40.5567 63.6669L40.6167 63.6798L40.6684 63.6967L40.7374 63.7114L40.8034 63.7031L40.8548 63.7406L40.9227 63.7466L40.9927 63.77L41.052 63.8006L41.1055 63.8085L41.2252 63.8783L41.2644 63.9115L41.315 63.9431L41.3682 63.9716L41.4203 64.0148L41.4703 64.0641L41.5224 64.1073L41.553 64.165L41.603 64.2143L41.6393 64.2712L41.6739 64.3137L41.6991 64.3749L41.73 64.4354L41.7704 64.5474L41.7956 64.6087L41.7702 64.6616L41.7322 64.7074L41.6852 64.7514L41.5776 64.8001L41.5105 64.8232L41.3903 64.8881L41.3336 64.9011L41.2733 64.9321L41.2109 64.9692L41.1456 64.9833L41.0394 65.0201L40.9826 65.0331L40.909 65.0278L40.8745 64.9853L40.8314 64.9439L40.7766 64.8336L40.7428 64.7735L40.6918 64.7389L40.654 64.6939L40.6055 64.6561L40.5552 64.6273L40.4395 64.5892L40.3641 64.5928L40.3153 64.5756L40.1907 64.5825L40.1139 64.598L40.0694 64.6153L40.007 64.629L39.956 64.6413L39.9043 64.6712L39.8512 64.7131L39.8093 64.7506L39.7728 64.8079L39.7506 64.8633L39.7216 64.9109L39.7069 64.9801L39.7034 65.0215L39.7039 65.0947L39.7187 65.2128L39.7156 65.2806L39.7279 65.3317L39.7291 65.4106L39.7284 65.4751L39.7425 65.5406L39.7498 65.5983L39.7459 65.6603L39.7532 65.7179L39.7493 65.7799L39.7645 65.8541L39.7574 65.9135L39.765 65.974L39.7665 66.0324L39.7822 66.1563L39.7862 66.2349L39.805 66.291L39.8122 66.3487L39.8557 66.393L39.8799 66.4456L39.913 66.4999L39.9776 66.5269L40.0143 66.5633L40.0739 66.5734L40.1407 66.5942L40.1849 66.5974L40.2481 66.6129L40.3124 66.6136L40.4416 66.5973L40.5105 66.5886L40.5665 66.5699L40.639 66.5432L40.6957 66.5302L40.7366 66.484L40.79 66.4451L40.8183 66.3918L40.8491 66.3352L40.8763 66.2966L40.9325 66.1637L40.9554 66.1139L41.0024 66.07L41.0498 66.0523L41.1072 66.0685L41.2343 66.0817L41.2918 66.0979L41.3683 66.1263L41.4208 66.149L41.4955 66.163L41.5422 66.1864L41.6165 66.1975L41.6858 66.2151L41.8087 66.2641L41.8525 66.2878L41.8871 66.3303L41.9238 66.3901L41.912 66.4589L41.8824 66.571L41.8663 66.6286L41.8459 66.6985L41.804 66.736L41.7829 66.8002L41.7524 66.8596L41.713 66.9173L41.6811 66.9652L41.5618 67.1061L41.5054 67.1454L41.4653 67.1739L41.3997 67.232L41.3516 67.2673L41.3125 67.281L41.2554 67.3145L41.1937 67.3574L41.0628 67.4061L41.0168 67.4119L40.9501 67.4379L40.9006 67.4617L40.827 67.4798L40.7695 67.487L40.692 67.4968L40.6392 67.4946L40.5804 67.5137L40.5161 67.5131L40.38 67.5214L40.3618 67.5384Z" fill="#42210B"/>
<path d="M42.506 67.3093L42.455 67.2982L42.4073 67.2661L42.3637 67.2218L42.3569 67.1671L42.343 67.0342L42.321 66.9754L42.3353 66.9268L42.3259 66.8519L42.3229 66.782L42.3042 66.7258L42.3073 66.6581L42.2897 66.6105L42.3011 66.5388L42.2844 66.4765L42.2919 66.4199L42.2839 66.3565L42.2748 66.2845L42.2744 66.2348L42.2657 66.1656L42.2574 66.0993L42.2386 66.0431L42.2461 65.9866L42.2474 65.9278L42.2376 65.85L42.2203 65.8054L42.2321 65.7365L42.2137 65.6832L42.2046 65.6112L42.2142 65.5485L42.2073 65.4937L42.2033 65.4152L42.1824 65.3651L42.1877 65.2913L42.1704 65.2466L42.1825 65.1807L42.1598 65.1162L42.1669 65.0568L42.1571 64.9789L42.1609 64.917L42.1397 64.864L42.1529 64.8067L42.1379 64.6183L42.1195 64.5416L42.1277 64.4908L42.1182 64.4159L42.1182 64.369L42.0944 64.2959L42.0857 64.2267L42.101 64.1633L42.0938 64.1057L42.0911 64.0387L42.0839 63.9811L42.0687 63.9068L42.0596 63.788L42.08 63.7415L42.095 63.6752L42.1599 63.6348L42.2001 63.6297L42.3379 63.6124L42.3896 63.6059L42.4722 63.613L42.5239 63.6065L42.5842 63.5989L42.6524 63.5845L42.7206 63.5934L42.7924 63.5844L42.9263 63.5822L42.9766 63.5875L43.0201 63.6084L43.0579 63.6534L43.0931 63.7017L43.1099 63.9045L43.11 63.9748L43.1047 64.0252L43.1242 64.0872L43.1153 64.1556L43.1347 64.2176L43.1334 64.2763L43.1349 64.3581L43.143 64.4683L43.1575 64.5367L43.1529 64.6164L43.1684 64.67L43.1827 64.8527L43.1982 64.9298L43.3124 64.9095L43.3824 64.9095L43.4922 64.9015L43.5658 64.8835L43.6344 64.8953L43.6832 64.8892L43.7421 64.8701L43.8071 64.8765L43.947 64.853L44.0156 64.8649L44.0759 64.8573L44.1732 64.8421L44.1839 64.788L44.1877 64.7027L44.1809 64.6479L44.1671 64.5852L44.1696 64.5351L44.1533 64.4523L44.1468 64.4004L44.1492 64.3269L44.1534 64.2678L44.1336 64.203L44.1248 64.087L44.1247 64.0167L44.1253 63.9523L44.1159 63.8773L44.1079 63.8139L44.101 63.7592L44.0972 63.6367L44.1208 63.5693L44.1323 63.521L44.1889 63.4846L44.2521 63.4766L44.3598 63.4514L44.4373 63.4416L44.4984 63.4398L44.5572 63.4441L44.6312 63.4289L44.7019 63.4346L44.764 63.418L44.9546 63.4028L45.0078 63.4078L45.0671 63.4384L45.1038 63.4982L45.1182 63.5432L45.1331 63.6614L45.1278 63.7352L45.1365 63.8044L45.143 63.8563L45.1518 63.9254L45.1472 63.9816L45.1685 64.058L45.1642 64.1171L45.1632 64.1787L45.1834 64.2464L45.181 64.2965L45.1811 64.3667L45.1977 64.4291L45.1946 64.4968L45.1921 64.5469L45.2127 64.6175L45.2084 64.6766L45.2168 64.7428L45.2183 64.8012L45.2263 64.8646L45.2232 64.9323L45.2415 64.9856L45.2384 65.0534L45.2471 65.1225L45.2547 65.1831L45.2534 65.2418L45.2621 65.311L45.2755 65.3708L45.2666 65.4392L45.2857 65.4983L45.275 65.5523L45.2941 65.6114L45.2841 65.6712L45.2939 65.749L45.3016 65.8095L45.3103 65.9255L45.3097 65.99L45.3306 66.0635L45.3192 66.1118L45.3287 66.1867L45.3451 66.3632L45.3595 66.4317L45.3596 66.5019L45.3586 66.5635L45.3659 66.6212L45.3782 66.6958L45.3761 66.7487L45.3744 66.8046L45.3835 66.9234L45.384 66.9966L45.3561 67.0528L45.3015 67.0831L45.2455 67.1018L45.117 67.1239L45.0377 67.1192L44.9763 67.1182L44.9246 67.1247L44.8499 67.1341L44.7972 67.132L44.7203 67.1475L44.6658 67.1544L44.5355 67.162L44.4687 67.1411L44.4302 67.1138L44.3907 67.0778L44.3715 67.0187L44.3548 66.8861L44.3494 66.8195L44.3306 66.7633L44.3338 66.6956L44.3182 66.6419L44.3264 66.5677L44.3012 66.2517L44.2824 66.1955L44.2838 66.1368L44.2747 66.0648L44.2832 65.9934L44.2767 65.9416L44.2687 65.8782L44.2704 65.8223L44.2369 65.7416L44.1293 65.7669L43.9358 65.7825L43.8848 65.7714L43.8116 65.7923L43.7555 65.7876L43.5735 65.8018L43.4949 65.8029L43.4489 65.8087L43.3707 65.8127L43.2759 65.8246L43.2548 65.8888L43.2549 65.959L43.2701 66.0332L43.259 66.0844L43.2678 66.1536L43.28 66.2047L43.291 66.338L43.3001 66.41L43.3073 66.4677L43.3078 66.5408L43.3036 66.5999L43.3115 66.6633L43.3192 66.7238L43.3178 66.7826L43.3333 66.8362L43.342 66.9054L43.3332 66.9738L43.3484 67.0949L43.3424 67.163L43.3123 67.2253L43.2729 67.2596L43.2183 67.2664L43.0783 67.2899L43.0101 67.281L42.8787 67.3034L42.8112 67.3002L42.6971 67.3204L42.6127 67.3222L42.4885 67.332L42.506 67.3093Z" fill="#42210B"/>
<path d="M46.1545 66.999L46.1013 66.994L46.037 66.9699L46.0165 66.9227L45.9938 66.8582L45.9793 66.7429L45.9602 66.6839L45.9515 66.6147L45.9539 66.5646L45.9538 66.4944L45.9397 66.4288L45.9411 66.3701L45.9406 66.2969L45.9179 66.2325L45.9023 66.1085L45.9058 66.0437L45.9136 65.99L45.8945 65.9309L45.8858 65.8618L45.8782 65.8013L45.8716 65.7494L45.8742 65.5617L45.8648 65.4867L45.8475 65.4187L45.8398 65.3581L45.8498 65.2983L45.8314 65.245L45.8321 65.1805L45.8111 65.1071L45.8254 65.0584L45.8174 64.995L45.808 64.9201L45.8015 64.8682L45.8032 64.8124L45.7952 64.749L45.7779 64.6809L45.7589 64.4842L45.7517 64.4265L45.748 64.3743L45.7537 64.3033L45.7335 64.2356L45.7409 64.1791L45.72 64.1056L45.7228 64.0584L45.7076 63.9842L45.709 63.9254L45.6919 63.79L45.6958 63.728L45.6885 63.6704L45.6802 63.6041L45.6735 63.482L45.6724 63.4265L45.6967 63.3649L45.7383 63.3245L45.8072 63.3158L45.9871 63.2844L46.0589 63.2753L46.1238 63.2818L46.1831 63.2656L46.2484 63.2749L46.3059 63.2677L46.3719 63.2593L46.4351 63.2514L46.4907 63.2531L46.5482 63.2459L46.6774 63.2296L46.7356 63.2282L46.7948 63.2119L46.858 63.204L46.928 63.2039L46.9919 63.2017L47.0493 63.1945L47.1139 63.1747L47.1721 63.1732L47.2266 63.1663L47.2967 63.1663L47.3627 63.158L47.4262 63.1529L47.4779 63.1464L47.5422 63.1471L47.595 63.1258L47.6718 63.1337L47.7235 63.1271L47.7766 63.1087L47.8498 63.1112L47.9119 63.0946L47.9687 63.105L48.0914 63.0837L48.1575 63.0988L48.2017 63.1255L48.2474 63.1636L48.2737 63.2335L48.2896 63.3603L48.306 63.49L48.2971 63.5584L48.3187 63.6143L48.3159 63.6849L48.3255 63.8301L48.3263 63.8827L48.2926 63.9396L48.2553 63.9677L48.1893 63.9995L48.0543 64.0165L48.0065 64.0078L47.9445 64.0244L47.8152 64.0407L47.7563 64.0364L47.6903 64.0448L47.6271 64.0527L47.5575 64.0556L47.5014 64.051L47.4343 64.0741L47.3166 64.0889L47.243 64.0835L47.1934 64.0839L47.1206 64.1077L47.066 64.1146L47.0068 64.1074L46.94 64.11L46.8729 64.1331L46.7828 64.1356L46.7584 64.1973L46.7682 64.2751L46.7751 64.3298L46.7763 64.4087L46.7782 64.47L46.7877 64.5449L46.8129 64.6061L46.922 64.5924L46.9787 64.5794L47.039 64.5718L47.0975 64.5732L47.1492 64.5667L47.221 64.5576L47.2778 64.5681L47.3513 64.55L47.3944 64.5446L47.4662 64.5355L47.5186 64.5348L47.594 64.5312L47.6371 64.5257L47.6985 64.5268L47.7717 64.5058L47.8191 64.5116L47.9512 64.4949L48.0148 64.5133L48.0694 64.5298L48.0993 64.5817L48.1256 64.6516L48.1412 64.7755L48.1481 64.8303L48.1449 64.898L48.1659 64.9715L48.1663 65.0446L48.1675 65.1001L48.1831 65.224L48.1728 65.3043L48.1506 65.3364L48.1057 65.3743L48.0433 65.4114L47.918 65.4126L47.8548 65.4205L47.7859 65.4292L47.7342 65.4357L47.6757 65.4343L47.6211 65.4412L47.545 65.4625L47.4969 65.451L47.4241 65.4748L47.3587 65.4654L47.3031 65.4871L47.2377 65.4778L47.12 65.4926L47.0669 65.511L47.0073 65.5009L46.9111 65.5248L46.8943 65.5766L46.9034 65.6487L46.892 65.7204L46.8985 65.7723L46.9047 65.8447L46.927 65.9063L46.9174 65.969L46.9581 66.0136L47.0633 66.015L47.1264 66.007L47.1814 66.0031L47.2348 65.9875L47.3016 65.985L47.4165 65.9705L47.4811 65.9741L47.549 65.9567L47.6165 65.96L47.6689 65.9592L47.7292 65.9516L47.787 65.9473L47.8512 65.9245L47.9094 65.9231L47.9798 65.9259L48.0304 65.9107L48.095 65.9143L48.1553 65.9067L48.2228 65.8865L48.2853 65.8962L48.4109 65.8745L48.4798 65.8893L48.5204 65.9105L48.5568 65.9674L48.587 66.0221L48.594 66.1472L48.6099 66.2037L48.6168 66.2585L48.6068 66.3183L48.6137 66.373L48.6274 66.4357L48.6239 66.5006L48.6388 66.6187L48.635 66.6807L48.6031 66.7286L48.5475 66.7737L48.494 66.7892L48.3809 66.7947L48.3177 66.8026L48.2449 66.803L48.1943 66.8182L48.1311 66.8261L48.0639 66.8258L47.995 66.8345L47.9365 66.8331L47.8837 66.8544L47.8198 66.8565L47.7638 66.8519L47.7082 66.8735L47.6407 66.8703L47.5775 66.8783L47.5082 66.8841L47.4587 66.8845L47.3955 66.8924L47.3302 66.9065L47.2785 66.913L47.1435 66.93L47.0789 66.9265L47.0197 66.9427L46.9665 66.9377L46.912 66.9446L46.8344 66.9543L46.7827 66.9608L46.7249 66.9652L46.6474 66.975L46.5968 66.9667L46.525 66.9757L46.4101 66.9902L46.3498 66.9978L46.2913 66.9964L46.162 67.0127L46.1545 66.999Z" fill="#42210B"/>
<path d="M49.2675 66.6919L49.2143 66.6869L49.15 66.6628L49.1295 66.6156L49.1068 66.5511L49.0922 66.4358L49.0703 66.3771L49.0616 66.308L49.0608 66.2554L49.0607 66.1851L49.0466 66.1195L49.0479 66.0608L49.0446 65.988L49.019 65.9239L49.0034 65.8L49.004 65.7355L49.0119 65.6818L48.9927 65.6228L48.984 65.5536L48.9764 65.4931L48.9699 65.4412L48.9667 65.2542L48.9573 65.1793L48.9371 65.1116L48.9295 65.0511L48.9366 64.9916L48.9182 64.9383L48.9188 64.8738L48.8979 64.8003L48.9093 64.7521L48.9013 64.6886L48.8919 64.6137L48.8854 64.5618L48.8842 64.5064L48.8762 64.443L48.856 64.3752L48.8313 64.1793L48.8241 64.1216L48.8233 64.069L48.8289 63.9981L48.8087 63.9303L48.8162 63.8738L48.7953 63.8003L48.7981 63.7531L48.7829 63.6789L48.7843 63.6202L48.7672 63.4847L48.7682 63.4231L48.7609 63.3655L48.7497 63.2995L48.7402 63.1778L48.739 63.1223L48.7634 63.0607L48.805 63.0203L48.8739 63.0116L49.0534 62.9773L49.1252 62.9683L49.1898 62.9718L49.249 62.9556L49.3144 62.9649L49.3718 62.9577L49.4375 62.9465L49.5007 62.9385L49.5559 62.9374L49.6134 62.9302L49.7426 62.9139L49.8008 62.9124L49.86 62.8962L49.9232 62.8882L49.9957 62.885L50.0596 62.8828L50.117 62.8755L50.1813 62.8528L50.2394 62.8513L50.294 62.8445L50.3636 62.8415L50.4297 62.8332L50.4929 62.8253L50.5446 62.8188L50.6085 62.8166L50.6612 62.7953L50.7381 62.8032L50.7898 62.7967L50.8425 62.7754L50.9157 62.7779L50.9778 62.7612L51.0346 62.7717L51.157 62.7475L51.2227 62.7597L51.2669 62.7863L51.3154 62.8241L51.3446 62.8936L51.3606 63.0204L51.3769 63.1501L51.368 63.2186L51.3896 63.2744L51.3869 63.345L51.3964 63.4902L51.3972 63.5428L51.3664 63.5994L51.3295 63.6304L51.2634 63.6621L51.1285 63.6791L51.0811 63.6734L51.019 63.69L50.8897 63.7063L50.8312 63.7049L50.7652 63.7132L50.7024 63.724L50.6327 63.7269L50.5767 63.7223L50.5096 63.7454L50.3918 63.7602L50.3182 63.7548L50.2687 63.7552L50.1958 63.779L50.1413 63.7859L50.0824 63.7816L50.0156 63.7842L49.9485 63.8073L49.8587 63.8127L49.8344 63.8743L49.8442 63.9521L49.854 64.0065L49.858 64.0851L49.8599 64.1463L49.869 64.2184L49.8942 64.2796L50.0033 64.2659L50.0597 64.25L50.12 64.2424L50.1782 64.2409L50.2299 64.2344L50.3013 64.2225L50.358 64.2329L50.4287 64.2152L50.4718 64.2098L50.5432 64.1978L50.5957 64.1971L50.671 64.1935L50.7134 64.1823L50.7752 64.1862L50.848 64.1624L50.8954 64.1681L51.0275 64.1515L51.0907 64.1669L51.145 64.1806L51.1748 64.2325L51.204 64.302L51.2196 64.4259L51.2262 64.4778L51.223 64.5455L51.2468 64.6186L51.2501 64.6914L51.2513 64.7469L51.2669 64.8708L51.2595 64.9508L51.2373 64.9829L51.1924 65.0207L51.13 65.0579L51.0051 65.0619L50.9419 65.0698L50.8733 65.0814L50.8216 65.0879L50.7635 65.0894L50.7089 65.0963L50.6332 65.1204L50.5851 65.1089L50.5122 65.1327L50.4469 65.1234L50.3941 65.1447L50.3288 65.1354L50.211 65.1502L50.1579 65.1686L50.0983 65.1585L50.0025 65.1852L49.9885 65.2368L49.9976 65.3088L49.9891 65.3802L50.0014 65.4313L50.0047 65.5041L50.027 65.5657L50.0174 65.6284L50.0581 65.673L50.1629 65.6715L50.2261 65.6636L50.2806 65.6567L50.3341 65.6412L50.4009 65.6386L50.5158 65.6241L50.58 65.6248L50.6479 65.6075L50.7154 65.6107L50.7678 65.61L50.8281 65.6024L50.8855 65.5951L50.9498 65.5724L51.0079 65.5709L51.0783 65.5738L51.1289 65.5586L51.1935 65.5622L51.2538 65.5546L51.321 65.5315L51.3834 65.5412L51.5087 65.5166L51.5773 65.5285L51.6179 65.5497L51.6539 65.6037L51.6838 65.6556L51.6936 65.7803L51.7095 65.8368L51.7164 65.8916L51.7064 65.9514L51.7133 66.0061L51.7299 66.0684L51.7264 66.1333L51.7413 66.2515L51.7403 66.3131L51.7084 66.361L51.6561 66.4086L51.6026 66.4241L51.4899 66.4324L51.4267 66.4404L51.3538 66.4408L51.3032 66.456L51.24 66.4639L51.1733 66.4665L51.1043 66.4751L51.0462 66.4766L50.9934 66.4979L50.9295 66.5001L50.8735 66.4954L50.8179 66.5171L50.7504 66.5139L50.6872 66.5218L50.6183 66.5305L50.5687 66.5309L50.5055 66.5389L50.4406 66.5558L50.3889 66.5623L50.2539 66.5793L50.1893 66.5758L50.1301 66.592L50.0769 66.587L50.0224 66.5939L49.9452 66.6065L49.8935 66.613L49.8361 66.6203L49.7585 66.63L49.7083 66.6247L49.6365 66.6337L49.5216 66.6482L49.4613 66.6558L49.4031 66.6572L49.2739 66.6735L49.2675 66.6919Z" fill="#42210B"/>
<path d="M53.5461 66.2785L53.4837 66.2922L53.4069 66.3077L53.3537 66.3027L53.2905 66.3107L53.1641 66.3032L53.1006 66.2848L53.0238 66.3003L52.9738 66.2744L52.9049 66.2831L52.8287 66.2576L52.7813 66.2518L52.7059 66.2321L52.6582 66.2234L52.5849 66.1975L52.5346 66.1687L52.4789 66.1435L52.4228 66.1155L52.3747 66.0806L52.3147 66.0442L52.2715 66.0028L52.2305 65.9553L52.1749 65.9301L52.1345 65.8649L52.0893 65.8296L52.0562 65.7752L52.0198 65.7183L51.9647 65.6052L51.9503 65.5368L51.9577 65.4802L51.9954 65.4316L52.0388 65.4056L52.16 65.3259L52.2063 65.2996L52.2648 65.2776L52.3391 65.2419L52.3911 65.2148L52.4564 65.1773L52.512 65.1557L52.6297 65.094L52.6806 65.0817L52.7445 65.0795L52.8006 65.1076L52.8509 65.1598L52.9232 65.2473L52.9624 65.3039L53.0185 65.332L53.0799 65.3564L53.1356 65.3816L53.2577 65.4014L53.3216 65.3992L53.3704 65.4164L53.4386 65.402L53.5697 65.4001L53.626 65.3842L53.6985 65.3575L53.7674 65.3489L53.8213 65.3362L53.8693 65.3009L53.9321 65.2666L53.9802 65.2313L54.0288 65.1081L54.0129 64.9813L53.9773 64.9301L53.9309 64.8862L53.8633 64.8596L53.8102 64.8546L53.7445 64.8423L53.6909 64.811L53.6177 64.8085L53.5699 64.7999L53.4924 64.8097L53.3118 64.8119L53.2587 64.8069L53.1879 64.8012L53.1219 64.8095L53.063 64.8052L53.0066 64.7977L52.9405 64.7826L52.8755 64.7761L52.8037 64.7852L52.7516 64.7654L52.6899 64.7615L52.6342 64.7363L52.5767 64.7201L52.5024 64.709L52.4546 64.7003L52.3864 64.668L52.3433 64.65L52.2685 64.6125L52.2243 64.5859L52.1708 64.5546L52.1294 64.5042L52.0738 64.479L52.0399 64.4188L52.0004 64.3828L51.9658 64.3169L51.9216 64.2669L51.8827 64.2132L51.8705 64.162L51.8294 64.0911L51.8272 64.027L51.8059 63.974L51.7807 63.9128L51.7724 63.8465L51.7521 63.7319L51.7545 63.6585L51.7652 63.6044L51.7633 63.5432L51.7676 63.4841L51.7808 63.4268L51.7918 63.3522L51.8212 63.3075L51.8319 63.2535L51.8594 63.1944L51.878 63.1335L51.9153 63.0819L51.9558 63.0329L51.983 62.9944L52.0296 62.9475L52.0741 62.8834L52.1153 62.8635L52.177 62.8206L52.2154 62.7777L52.2782 62.7435L52.3266 62.711L52.37 62.6851L52.4382 62.6472L52.4952 62.6137L52.6 62.5653L52.6556 62.5437L52.7195 62.5415L52.7912 62.509L52.8422 62.4968L52.9075 62.4827L52.9635 62.4639L53.0346 62.4491L53.0956 62.4473L53.2256 62.4368L53.2755 62.4158L53.3376 62.4227L53.395 62.4154L53.521 62.42L53.5928 62.411L53.6496 62.4214L53.7602 62.4192L53.8417 62.4411L53.8826 62.4418L53.9541 62.4533L54.009 62.4727L54.0751 62.4878L54.1423 62.5116L54.1933 62.5461L54.2372 62.5699L54.2954 62.6153L54.3396 62.6419L54.3953 62.6671L54.4546 62.7211L54.5031 62.7589L54.5333 62.7902L54.5679 62.8561L54.6168 62.8968L54.6477 62.9339L54.7182 63.0539L54.7362 63.1043L54.7241 63.1702L54.6991 63.2261L54.6525 63.2729L54.5488 63.3299L54.4853 63.3584L54.4458 63.3926L54.3953 63.4312L54.3267 63.4662L54.2898 63.4972L54.2334 63.5131L54.1836 63.5574L54.0602 63.6198L54.0096 63.635L53.9474 63.6281L53.9068 63.6069L53.8605 63.563L53.7957 63.4657L53.7472 63.4045L53.6936 63.3732L53.6444 63.3531L53.5858 63.3282L53.5294 63.2973L53.4558 63.2919L53.3898 63.3002L53.3248 63.2938L53.2006 63.3036L53.1496 63.3158L53.0732 63.3343L53.0269 63.3606L52.9695 63.3912L52.8995 63.4147L52.8629 63.4486L52.8214 63.5124L52.8164 63.5657L52.8198 63.6853L52.8486 63.7519L52.9036 63.7713L52.9632 63.8048L53.0099 63.8282L53.0792 63.8458L53.15 63.8516L53.2146 63.8551L53.2699 63.854L53.3306 63.8727L53.406 63.8691L53.4706 63.8727L53.5862 63.8639L53.6584 63.8812L53.709 63.866L53.7798 63.8718L53.8419 63.8786L53.895 63.8836L53.9701 63.9005L54.0347 63.9041L54.0929 63.9026L54.1514 63.9274L54.2057 63.9411L54.2732 63.9443L54.3263 63.9727L54.3888 63.9824L54.4435 64.0224L54.4998 64.0299L54.5541 64.067L54.6098 64.0922L54.6565 64.139L54.7129 64.17L54.7453 64.2186L54.7863 64.2661L54.8438 64.3057L54.8626 64.3619L54.8968 64.4249L54.9345 64.4699L54.9622 64.5279L54.9911 64.5946L55.0091 64.6684L55.0207 64.7138L55.0412 64.7844L55.0374 64.8464L55.0673 64.9685L55.0696 65.0326L55.0668 65.1032L55.0608 65.1713L55.0558 65.2246L55.0376 65.2884L55.0269 65.3425L55.0087 65.4062L54.9808 65.4624L54.9475 65.5223L54.9299 65.5684L54.8966 65.6282L54.8482 65.6841L54.8217 65.7284L54.7801 65.7688L54.7324 65.807L54.6908 65.8474L54.6457 65.8823L54.5843 65.9281L54.5391 65.9631L54.4821 65.9966L54.4365 66.0287L54.3669 66.055L54.2535 66.1044L54.1944 66.1441L54.1312 66.1521L54.082 66.1787L54.0246 66.186L53.9654 66.2022L53.8972 66.2401L53.8412 66.2354L53.7806 66.2636L53.7073 66.2611L53.6632 66.2813L53.5379 66.2824L53.5461 66.2785Z" fill="#42210B"/>
<path d="M55.7729 65.9131L55.7173 65.9113L55.6533 65.8901L55.6299 65.8432L55.6043 65.7791L55.5841 65.6646L55.5621 65.6059L55.5534 65.5367L55.5497 65.4845L55.5467 65.4146L55.5298 65.3494L55.5283 65.291L55.5188 65.2161L55.4961 65.1516L55.4805 65.0277L55.4725 64.9643L55.4771 64.9081L55.4551 64.8494L55.4464 64.7802L55.4331 64.7204L55.4265 64.6685L55.4176 64.4823L55.4028 64.4109L55.3855 64.3429L55.3779 64.2823L55.3821 64.2233L55.3608 64.1703L55.3586 64.1062L55.3352 64.0359L55.3466 63.9877L55.3386 63.9243L55.3234 63.8501L55.3169 63.7982L55.3129 63.7431L55.2991 63.6804L55.2818 63.6123L55.2571 63.4163L55.2412 63.3598L55.2347 63.3079L55.2432 63.2366L55.2202 63.1692L55.2247 63.113L55.2013 63.0428L55.2012 62.9959L55.1836 62.925L55.182 62.8666L55.165 62.7312L55.1574 62.6706L55.1501 62.613L55.136 62.5474L55.1208 62.4264L55.1225 62.3706L55.1439 62.3093L55.1852 62.266L55.2541 62.2574L55.4328 62.2173L55.5046 62.2082L55.5689 62.2089L55.6277 62.1898L55.6927 62.1962L55.7502 62.189L55.8155 62.1749L55.8787 62.167L55.9336 62.163L55.9903 62.15L56.1195 62.1337L56.177 62.1265L56.2358 62.1073L56.2983 62.0936L56.3712 62.0932L56.4343 62.0853L56.4921 62.0809L56.556 62.0553L56.6134 62.0481L56.6684 62.0441L56.7373 62.0354L56.8033 62.0271L56.8665 62.0191L56.9186 62.0155L56.9818 62.0075L57.032 61.9895L57.1085 61.9945L57.1594 61.9822L57.2126 61.9638L57.2883 61.9631L57.35 61.9436L57.4064 61.9511L57.5285 61.924L57.5942 61.9362L57.638 61.96L57.6865 61.9978L57.7157 62.0673L57.7374 62.1934L57.7538 62.3231L57.7506 62.3908L57.7722 62.4466L57.7723 62.5169L57.7905 62.661L57.7884 62.714L57.758 62.7734L57.721 62.8044L57.6554 62.839L57.5204 62.856L57.4734 62.8532L57.4116 62.8727L57.2824 62.8889L57.225 62.8962L57.1589 62.9045L57.0965 62.9182L57.0276 62.9269L56.9712 62.9194L56.9044 62.9453L56.7867 62.9602L56.7138 62.9606L56.6643 62.961L56.5946 62.9873L56.5401 62.9942L56.4816 62.9927L56.4155 63.0011L56.348 63.0213L56.259 63.0325L56.2372 63.0909L56.2527 63.168L56.2596 63.2227L56.2666 63.3009L56.2742 63.3614L56.2833 63.4335L56.3085 63.4947L56.4169 63.4752L56.4736 63.4622L56.5339 63.4546L56.5917 63.4502L56.6427 63.438L56.7145 63.4289L56.7708 63.4364L56.8412 63.4159L56.8842 63.4104L56.9553 63.3956L57.0077 63.3949L57.0824 63.3855L57.1255 63.3801L57.1869 63.3811L57.2565 63.3548L57.3035 63.3576L57.4349 63.3352L57.4981 63.3507L57.5552 63.364L57.5876 63.4126L57.6168 63.4821L57.6324 63.606L57.6475 63.6568L57.6473 63.7242L57.6736 63.7941L57.683 63.869L57.6813 63.9249L57.6969 64.0488L57.6952 64.128L57.6734 64.163L57.6289 64.2037L57.5668 64.2438L57.4423 64.2507L57.3791 64.2586L57.3109 64.2731L57.2599 64.2853L57.2014 64.2839L57.1476 64.2966L57.0715 64.3179L57.0237 64.3092L56.9541 64.3356L56.8891 64.3291L56.8367 64.3533L56.7717 64.3468L56.654 64.3617L56.6016 64.3858L56.5424 64.3787L56.4469 64.4082L56.433 64.4598L56.442 64.5318L56.4364 64.6028L56.4487 64.6539L56.4581 64.7289L56.4776 64.7908L56.4708 64.8532L56.5143 64.8974L56.6188 64.8931L56.6813 64.8794L56.7366 64.8782L56.7868 64.8602L56.8529 64.8519L56.9677 64.8374L57.0309 64.8295L57.0991 64.815L57.1662 64.8153L57.2187 64.8146L57.2782 64.8012L57.3357 64.794L57.4003 64.7741L57.4584 64.7727L57.5284 64.7726L57.5787 64.7546L57.643 64.7553L57.7033 64.7477L57.77 64.7217L57.8321 64.7285L57.957 64.7011L58.0256 64.7129L58.0662 64.7342L58.1051 64.7878L58.1378 64.8393L58.1534 64.9633L58.1693 65.0198L58.1762 65.0746L58.1691 65.134L58.176 65.1888L58.1955 65.2507L58.1948 65.3152L58.2155 65.4326L58.2145 65.4943L58.1855 65.5418L58.1331 65.5894L58.08 65.6078L57.9651 65.6223L57.9019 65.6302L57.8302 65.6393L57.7792 65.6516L57.7167 65.6653L57.6496 65.665L57.5814 65.6794L57.5229 65.678L57.4705 65.7021L57.4073 65.7101L57.3509 65.7026L57.2957 65.7271L57.2285 65.7268L57.1661 65.7405L57.0972 65.7492L57.0444 65.747L56.9812 65.755L56.9166 65.7748L56.8656 65.7871L56.7307 65.8041L56.6664 65.8034L56.6075 65.8226L56.5548 65.8204L56.5002 65.8273L56.4234 65.8428L56.3724 65.8551L56.315 65.8623L56.2374 65.8721L56.1839 65.8642L56.1129 65.879L55.998 65.8935L55.9388 65.9097L55.8803 65.9083L55.751 65.9246L55.7729 65.9131Z" fill="#42210B"/>
<path d="M60.0348 65.3704L59.9723 65.3841L59.8959 65.4025L59.8431 65.4004L59.7799 65.4084L59.6542 65.4066L59.591 65.3912L59.5146 65.4096L59.465 65.3865L59.3961 65.3952L59.3174 65.3729L59.2704 65.3701L59.1924 65.3535L59.1447 65.3449L59.0714 65.319L59.0211 65.2902L58.9625 65.2654L58.9065 65.2373L58.8583 65.2024L58.7958 65.1693L58.7502 65.1311L58.7063 65.084L58.651 65.0616L58.6082 64.9997L58.5629 64.9644L58.5298 64.91L58.4934 64.8531L58.4355 64.7404L58.421 64.672L58.4285 64.6154L58.4632 64.5671L58.5066 64.5411L58.6247 64.4589L58.6706 64.4297L58.7287 64.4048L58.8026 64.3663L58.8543 64.3363L58.9167 64.2992L58.9719 64.2747L59.0893 64.2101L59.1373 64.1982L59.2005 64.1902L59.2569 64.2212L59.3101 64.2731L59.3849 64.3573L59.427 64.4135L59.4831 64.4416L59.5474 64.4657L59.6027 64.488L59.7273 64.5045L59.7905 64.4965L59.8397 64.5167L59.9079 64.5022L60.0386 64.4975L60.0946 64.4787L60.1667 64.4491L60.2356 64.4405L60.2891 64.4249L60.3368 64.3867L60.3996 64.3525L60.4473 64.3143L60.4931 64.1914L60.4771 64.0646L60.4357 64.0142L60.3868 63.9735L60.3193 63.9469L60.2665 63.9447L60.2012 63.9354L60.1448 63.9044L60.069 63.9052L60.0212 63.8966L59.9437 63.9063L59.7642 63.9172L59.7114 63.9151L59.6407 63.9094L59.5746 63.9177L59.5165 63.9192L59.4572 63.912L59.3915 63.8998L59.3265 63.8933L59.2547 63.9024L59.203 63.8855L59.1416 63.8844L59.0834 63.8625L59.0234 63.8495L58.9466 63.8416L58.8988 63.833L58.8309 63.8035L58.7882 63.7884L58.7138 63.7539L58.67 63.7301L58.6164 63.6988L58.5722 63.6487L58.514 63.6268L58.4802 63.5666L58.4377 63.531L58.4007 63.4683L58.3536 63.4186L58.3147 63.365L58.3024 63.3138L58.2618 63.2458L58.2538 63.1824L58.2325 63.1294L58.2045 63.0685L58.1961 63.0022L58.1701 62.8884L58.1696 62.8153L58.18 62.7584L58.1723 62.6978L58.1766 62.6388L58.1865 62.5789L58.1943 62.5018L58.2237 62.4572L58.234 62.4002L58.2612 62.3382L58.2766 62.2748L58.311 62.2237L58.3486 62.175L58.3726 62.1339L58.4189 62.0842L58.4601 62.0175L58.501 61.9948L58.5623 61.949L58.5974 61.9036L58.6602 61.8693L58.7086 61.8369L58.752 61.8109L58.8202 61.7731L58.8772 61.7395L58.9788 61.6887L59.034 61.6642L59.0972 61.6562L59.169 61.6237L59.2199 61.6115L59.2853 61.5974L59.3413 61.5786L59.412 61.5609L59.4723 61.5533L59.6022 61.5428L59.6517 61.519L59.7139 61.5258L59.7713 61.5186L59.8966 61.5174L59.9684 61.5084L60.0276 61.5156L60.1375 61.5076L60.2215 61.5263L60.2617 61.5212L60.3336 61.5356L60.3882 61.5521L60.4539 61.5644L60.5207 61.5852L60.5717 61.6198L60.6152 61.6407L60.6759 61.6828L60.7198 61.7065L60.7783 61.7314L60.8376 61.7854L60.8862 61.8232L60.9164 61.8545L60.9534 61.9172L61.0019 61.955L61.0329 61.9921L61.1088 62.1084L61.1264 62.1559L61.1172 62.2215L61.095 62.277L61.0488 62.3267L60.9483 62.3862L60.8852 62.4176L60.8461 62.4547L60.7959 62.4962L60.7277 62.534L60.6908 62.565L60.6348 62.5838L60.5853 62.631L60.4651 62.6959L60.4149 62.714L60.3528 62.7072L60.3125 62.6888L60.2636 62.6481L60.1935 62.5545L60.1424 62.4965L60.0889 62.4652L60.0401 62.4479L59.979 62.4264L59.9197 62.3958L59.8432 62.3908L59.7772 62.3991L59.7125 62.3955L59.5891 62.4111L59.541 62.423L59.4649 62.4443L59.419 62.4735L59.3619 62.507L59.2923 62.5333L59.2561 62.5701L59.2178 62.6364L59.2157 62.6894L59.2248 62.8083L59.2562 62.8717L59.3136 62.8878L59.3758 62.9181L59.4221 62.9386L59.4911 62.9533L59.5618 62.959L59.6261 62.9597L59.6806 62.9529L59.7413 62.9716L59.816 62.9621L59.881 62.9686L59.9959 62.9541L60.0681 62.9714L60.1154 62.9537L60.1862 62.9594L60.2483 62.9663L60.3039 62.968L60.3786 62.982L60.4433 62.9856L60.5007 62.9784L60.5621 63.0028L60.6189 63.0133L60.686 63.0136L60.7392 63.042L60.8017 63.0517L60.8559 63.0888L60.9152 63.096L60.9691 63.1302L61.0244 63.1525L61.0737 63.196L61.133 63.2266L61.165 63.2724L61.2088 63.3195L61.2688 63.3559L61.2876 63.4121L61.3218 63.4751L61.3621 63.5169L61.3927 63.5745L61.424 63.6379L61.4445 63.7085L61.4561 63.7539L61.4767 63.8245L61.4757 63.8861L61.5114 64.0075L61.5194 64.0709L61.5166 64.1415L61.5106 64.2096L61.5089 64.2654L61.4935 64.3289L61.4832 64.3858L61.4678 64.4492L61.4403 64.5083L61.4102 64.5706L61.3927 64.6168L61.3626 64.6791L61.3171 64.7346L61.2934 64.7786L61.2551 64.8215L61.2077 64.8625L61.1694 64.9054L61.1274 64.9429L61.0693 64.9912L61.0274 65.0287L60.9703 65.0623L60.9277 65.094L60.8613 65.1228L60.7486 65.178L60.6894 65.2177L60.6262 65.2256L60.5803 65.2548L60.5229 65.2621L60.4644 65.2841L60.3962 65.3219L60.3406 65.3202L60.2803 65.3512L60.2046 65.3519L60.1608 65.375L60.0358 65.379L60.0348 65.3704Z" fill="#42210B"/>
<path d="M63.0397 64.7931L62.9729 64.7957L62.909 64.7745L62.8723 64.7381L62.8475 64.6798L62.8408 64.5576L62.8318 64.4856L62.8138 64.4352L62.7802 64.3076L62.783 64.237L62.7667 64.1776L62.7472 64.1156L62.7511 64.0537L62.7331 64.0032L62.7247 63.937L62.7204 63.879L62.7127 63.8184L62.6868 63.7514L62.6831 63.6758L62.6687 63.6308L62.651 63.5598L62.652 63.4982L62.6275 63.4427L62.6238 63.3671L62.6054 63.3138L62.5966 63.1978L62.5743 63.1362L62.5709 63.0634L62.5637 63.0058L62.5377 62.9388L62.5395 62.8829L62.5322 62.8253L62.5124 62.7604L62.5101 62.6963L62.4946 62.6426L62.478 62.5803L62.4786 62.5158L62.4609 62.4449L62.4458 62.3941L62.4468 62.3325L62.4381 62.2633L62.4197 62.21L62.4044 62.089L62.3233 62.0933L62.2716 62.0998L62.2092 62.1136L62.1402 62.1222L62.0692 62.1371L62.0117 62.1443L61.9446 62.144L61.8768 62.1613L61.8136 62.1692L61.7483 62.1833L61.6793 62.192L61.5584 62.2277L61.5038 62.2112L61.4413 62.2015L61.4053 62.1475L61.369 62.0906L61.3534 61.9667L61.3357 61.8957L61.327 61.8265L61.3194 61.766L61.3106 61.6968L61.303 61.6363L61.2687 61.503L61.2844 61.4425L61.302 61.3964L61.3489 61.3524L61.4006 61.3225L61.5241 61.3069L61.593 61.2982L61.6515 61.2762L61.7089 61.269L61.7628 61.2564L61.9541 61.2235L62.0324 61.2195L62.079 61.196L62.1379 61.2003L62.2068 61.1916L62.2771 61.1711L62.3392 61.1545L62.392 61.1566L62.4599 61.1393L62.5212 61.1169L62.5797 61.1183L62.6357 61.0996L62.696 61.092L62.7678 61.0829L62.8346 61.0804L62.8967 61.0638L62.9656 61.0551L63.0237 61.0302L63.0823 61.0316L63.1354 61.0132L63.2043 61.0045L63.256 60.998L63.396 60.9745L63.4488 60.9767L63.5101 60.9543L63.5808 60.9366L63.6383 60.9294L63.6939 60.9311L63.7628 60.9225L63.8246 60.903L63.8831 60.881L63.9462 60.873L64.0683 60.8693L64.1304 60.8527L64.1976 60.8765L64.2228 60.9377L64.2541 60.9777L64.2708 61.1102L64.2967 61.1772L64.3047 61.2406L64.3066 61.3019L64.3153 61.3711L64.3445 61.4406L64.3594 61.5587L64.344 61.6221L64.333 61.6733L64.2896 61.7227L64.2393 61.7407L64.1029 61.7696L63.9802 61.7909L63.9113 61.7996L63.8546 61.8126L63.7885 61.8209L63.721 61.8411L63.6607 61.8487L63.604 61.8617L63.543 61.8636L63.4816 61.8859L63.4002 61.9108L63.4197 62.0196L63.4431 62.0899L63.4504 62.1475L63.4688 62.2008L63.476 62.2585L63.4772 62.3374L63.5024 62.3986L63.4978 62.4548L63.5141 62.5142L63.5375 62.5845L63.5358 62.6403L63.5423 62.6922L63.5643 62.7509L63.5608 62.8157L63.5907 62.891L63.5869 62.953L63.6045 63.0005L63.6259 63.1237L63.6428 63.1889L63.6415 63.2477L63.6509 63.3226L63.6643 63.3824L63.6823 63.4328L63.6917 63.5077L63.6911 63.5722L63.7145 63.6191L63.7232 63.6882L63.7215 63.7441L63.7291 63.8046L63.7544 63.8658L63.762 63.9263L63.7757 63.989L63.7747 64.0506L63.7913 64.1129L63.8155 64.1889L63.8105 64.2423L63.8347 64.3183L63.8341 64.3828L63.8525 64.4829L63.8508 64.5622L63.8419 64.6072L63.787 64.658L63.7353 64.6645L63.6054 64.6985L63.548 64.7057L63.473 64.7122L63.4252 64.727L63.3506 64.7364L63.2967 64.7491L63.2192 64.7588L63.156 64.7668L63.0383 64.7816L63.0397 64.7931Z" fill="#42210B"/>
<path d="M65.4024 64.3783L65.3471 64.3794L65.2807 64.3615L65.2577 64.3175L65.2296 64.2567L65.2036 64.1428L65.1787 64.0845L65.17 64.0153L65.1635 63.9634L65.1548 63.8943L65.1378 63.8291L65.1305 63.7714L65.124 63.6961L65.093 63.6356L65.0688 63.5128L65.0608 63.4494L65.0654 63.3932L65.0405 63.3348L65.0261 63.2664L65.0098 63.207L65.0033 63.1551L64.9801 62.9706L64.9624 62.8997L64.9425 62.8348L64.9349 62.7743L64.9334 62.716L64.9093 62.6634L64.9013 62.6L64.8778 62.5297L64.8864 62.4818L64.8784 62.4184L64.8546 62.3453L64.8481 62.2934L64.8412 62.2387L64.8246 62.1763L64.8044 62.1086L64.7682 61.9141L64.7523 61.8575L64.7458 61.8057L64.7486 61.7351L64.723 61.6709L64.7243 61.6122L64.698 61.5423L64.698 61.4955L64.6774 61.4249L64.6702 61.3673L64.6477 61.2354L64.6401 61.1749L64.6328 61.1173L64.6159 61.0521L64.6006 60.931L64.5937 60.8763L64.6119 60.8125L64.6503 60.7696L64.7185 60.7552L64.8962 60.7064L64.9672 60.6916L65.0311 60.6894L65.0896 60.6674L65.1542 60.671L65.2117 60.6638L65.2763 60.6439L65.3395 60.6359L65.394 60.6291L65.4504 60.6132L65.5785 60.5883L65.6359 60.581L65.6948 60.5619L65.7569 60.5453L65.8294 60.542L65.8926 60.5341L65.95 60.5268L66.0107 60.4987L66.0681 60.4915L66.1227 60.4846L66.1916 60.4759L66.2565 60.4589L66.3197 60.451L66.3714 60.4445L66.4346 60.4365L66.4841 60.4127L66.5631 60.4145L66.6137 60.3993L66.6665 60.378L66.7418 60.3744L66.8032 60.352L66.8621 60.3563L66.9834 60.3235L67.0488 60.3328L67.0955 60.3562L67.1465 60.3908L67.1782 60.457L67.2085 60.582L67.2335 60.7106L67.2303 60.7784L67.2577 60.8335L67.2607 60.9034L67.2788 61.0475L67.2853 61.0993L67.2578 61.1584L67.2241 61.1919L67.1617 61.2291L67.0306 61.2544L66.9836 61.2515L66.9222 61.2739L66.7941 61.2988L66.7367 61.306L66.6706 61.3144L66.6085 61.331L66.5396 61.3396L66.4814 61.3411L66.4179 61.3696L66.3013 61.3931L66.2288 61.3964L66.1799 61.4025L66.1103 61.4289L66.0558 61.4357L65.998 61.4401L65.9319 61.4484L65.868 61.474L65.779 61.4852L65.7608 61.549L65.7821 61.6254L65.789 61.6801L65.8017 61.7576L65.8093 61.8181L65.827 61.8891L65.8551 61.9499L65.9627 61.9247L66.0191 61.9088L66.0794 61.9012L66.1368 61.8939L66.1846 61.8791L66.2556 61.8643L66.3145 61.8686L66.3845 61.8452L66.4276 61.8397L66.4979 61.8192L66.5496 61.8127L66.6243 61.8033L66.6662 61.7892L66.7273 61.7874L66.7965 61.7581L66.8432 61.7581L66.9735 61.7271L67.0392 61.7393L67.096 61.7497L67.1312 61.798L67.1629 61.8642L67.1871 61.9871L67.2023 62.0379L67.2049 62.1049L67.2341 62.1744L67.2435 62.2493L67.2504 62.3041L67.2746 62.4269L67.2729 62.5062L67.2539 62.5408L67.2124 62.5811L67.1535 62.6237L67.03 62.6392L66.9669 62.6472L66.899 62.6645L66.8513 62.6793L66.7931 62.6808L66.7397 62.6963L66.6639 62.7205L66.6165 62.7147L66.5473 62.744L66.4827 62.7404L66.4303 62.7645L66.3656 62.761L66.249 62.7845L66.1966 62.8086L66.1348 62.8047L66.0397 62.8372L66.0287 62.8883L66.0435 62.9596L66.0407 63.0303L66.0555 63.0782L66.065 63.1531L66.093 63.214L66.0892 63.2759L66.1323 63.3173L66.2357 63.3043L66.2982 63.2906L66.3527 63.2837L66.403 63.2657L66.469 63.2574L66.5803 63.2375L66.6435 63.2295L66.7077 63.2068L66.7745 63.2043L66.8262 63.1977L66.8858 63.1844L66.9432 63.1771L67.0042 63.1519L67.0616 63.1447L67.1313 63.1417L67.1783 63.1212L67.2422 63.119L67.3025 63.1114L67.3656 63.08L67.4274 63.0839L67.5516 63.0507L67.6198 63.0597L67.6629 63.0777L67.7046 63.131L67.7402 63.1821L67.7559 63.3061L67.7803 63.3615L67.7872 63.4163L67.7863 63.4779L67.7932 63.5327L67.8184 63.5939L67.8206 63.658L67.847 63.7747L67.8489 63.836L67.8231 63.8861L67.774 63.9362L67.7212 63.9574L67.6063 63.9719L67.5439 63.9856L67.4721 63.9947L67.4247 64.0124L67.3626 64.029L67.2959 64.0315L67.228 64.0488L67.1699 64.0503L67.1175 64.0745L67.0543 64.0824L66.9958 64.081L66.9409 64.1084L66.8741 64.111L66.812 64.1276L66.7431 64.1363L66.6914 64.1428L66.6282 64.1507L66.5644 64.1764L66.5137 64.1915L66.3827 64.2168L66.3188 64.219L66.2603 64.241L66.205 64.2421L66.1505 64.249L66.0748 64.2732L66.027 64.288L65.9696 64.2952L65.8931 64.3136L65.84 64.3086L65.7693 64.3263L65.658 64.3461L65.5988 64.3624L65.5406 64.3639L65.4125 64.3888L65.4024 64.3783Z" fill="#42210B"/>
<path d="M68.507 63.7939L68.4668 63.7989L68.4036 63.8069L68.344 63.8202L68.2823 63.8397L68.1473 63.8567L68.0837 63.8384L68.0377 63.7973L68.0251 63.7433L68.0407 63.6125L68.0549 63.5405L68.0585 63.4756L68.0713 63.4155L68.0698 63.3571L68.0876 63.2904L68.1016 63.2389L68.1058 63.1798L68.1262 63.1099L68.1322 63.0418L68.1249 62.9842L68.1392 62.9355L68.152 62.852L68.1566 62.7958L68.1738 62.7467L68.188 62.6747L68.1919 62.6127L68.203 62.5616L68.214 62.487L68.2117 62.4229L68.2293 62.3767L68.232 62.3061L68.2456 62.2517L68.2624 62.1764L68.2698 62.1198L68.2751 62.046L68.2833 61.9952L68.2904 61.9357L68.2903 61.8655L68.3082 61.7988L68.3142 61.7541L68.3224 61.6799L68.3348 61.6169L68.3542 61.5617L68.3541 61.4915L68.3525 61.4331L68.369 61.3784L68.3807 61.3095L68.3781 61.2425L68.4028 61.1838L68.4107 61.1301L68.426 61.0667L68.4169 60.9947L68.4387 60.9363L68.4361 60.8693L68.4562 60.8199L68.4467 60.745L68.4703 60.6776L68.4828 60.6145L68.4885 60.567L68.4924 60.505L68.5095 60.4326L68.5141 60.3764L68.505 60.3043L68.5175 60.2413L68.5457 60.1177L68.5768 60.064L68.5955 60.0265L68.6457 59.9851L68.6977 59.958L68.8205 59.9367L68.8844 59.9345L69.0756 59.8782L69.1485 59.8778L69.2034 59.8504L69.2792 59.8497L69.408 59.8071L69.4561 59.8186L69.5064 59.824L69.5729 59.8654L69.6833 60.0008L69.7178 60.0433L69.7438 60.1102L69.7733 60.1592L69.8089 60.2104L69.8481 60.2669L69.8819 60.3271L69.9093 60.3822L69.9528 60.4265L69.9805 60.4844L70.014 60.5417L70.0467 60.5932L70.0881 60.6436L70.1025 60.6887L70.1543 60.7524L70.1871 60.8039L70.2137 60.8532L70.2425 60.9199L70.2792 60.9562L70.3062 61.0085L70.3551 61.0726L70.3882 61.1269L70.4152 61.1792L70.4418 61.2285L70.4929 61.2865L70.5264 61.3438L70.5484 61.4025L70.5743 61.446L70.607 61.4975L70.657 61.5469L70.6966 61.6063L70.7239 61.6614L70.7595 61.7125L70.7901 61.7702L70.8125 61.8318L70.8466 61.8714L70.8887 61.9276L70.9114 61.992L70.9445 62.0464L71.0172 62.1368L71.0431 62.2038L71.0834 62.2456L71.1205 62.3082L71.141 62.3554L71.1888 62.4109L71.2227 62.471L71.2443 62.5269L71.2792 62.5722L71.3234 62.6223L71.3396 62.6817L71.3789 62.7383L71.4059 62.7905L71.4623 62.8449L71.4839 62.9007L71.5541 63.0177L71.5606 63.0696L71.5306 63.1319L71.4742 63.1712L71.3461 63.2196L71.2959 63.2142L71.2284 63.2344L71.1641 63.2571L71.1182 63.2629L71.0543 63.2651L70.9847 63.2915L70.9244 63.2991L70.8149 63.3333L70.7499 63.3269L70.6839 63.3352L70.6196 63.3345L70.5657 63.3237L70.5147 63.2892L70.4856 63.2431L70.4086 63.1181L70.3837 63.0598L70.3495 62.9967L70.3096 62.9578L70.2811 62.8941L70.2473 62.8339L70.1199 62.8646L70.0739 62.8704L69.9971 62.886L69.9444 62.9072L69.8152 62.9235L69.7653 62.9444L69.6964 62.9531L69.6486 62.9679L69.5711 62.9777L69.4035 63.0134L69.2225 63.0362L69.1648 63.064L69.1383 63.1317L69.1344 63.1937L69.136 63.2521L69.1127 63.3223L69.1074 63.3962L69.1097 63.5071L69.0858 63.5716L69.0496 63.6318L69.0098 63.6632L68.961 63.6928L68.9075 63.7083L68.8505 63.7418L68.7198 63.77L68.6674 63.7707L68.6032 63.7935L68.5407 63.8072L68.507 63.7939ZM69.2153 62.191L69.3233 62.1687L69.3682 62.1542L69.4371 62.1455L69.5132 62.1242L69.5677 62.1174L69.6381 62.0968L69.6977 62.0834L69.7723 62.074L69.8039 62.0466L69.7898 62.0045L69.7549 61.9591L69.7337 61.8828L69.6937 61.8439L69.6667 61.7682L69.6412 61.7275L69.6081 61.6731L69.567 61.6022L69.5408 61.5557L69.486 61.4455L69.449 61.3829L69.4284 61.3357L69.3885 61.2734L69.3608 61.2154L69.3313 61.1664L69.3086 61.1019L69.2863 61.0872L69.2612 61.0962L69.2547 61.1146L69.2578 61.2313L69.254 61.3635L69.2566 61.4305L69.2538 61.5011L69.2414 61.611L69.2293 61.6769L69.2254 61.7389L69.2277 61.803L69.2048 61.8762L69.2009 61.9381L69.2104 62.0131L69.1911 62.0682L69.1937 62.1352L69.1941 62.1849L69.2131 62.1972L69.2153 62.191Z" fill="#42210B"/>
<path d="M72.0235 63.0234L71.9783 63.0349L71.9151 63.0195L71.8744 62.9748L71.8384 62.9208L71.802 62.7936L71.7962 62.7475L71.794 62.6834L71.7594 62.6175L71.7575 62.5562L71.7499 62.4957L71.7265 62.4255L71.7041 62.3639L71.6843 62.299L71.6572 62.1766L71.6625 62.1261L71.6419 62.0555L71.6138 61.9947L71.6116 61.9305L71.5947 61.8888L71.5763 61.812L71.5571 61.753L71.5434 61.6903L71.5376 61.6442L71.5278 61.5663L71.5105 61.5217L71.5011 61.4468L71.4892 61.3985L71.4614 61.3405L71.4477 61.2778L71.444 61.2022L71.4263 61.1546L71.4079 61.0779L71.4021 61.0318L71.3923 60.954L71.3797 60.8999L71.3602 60.838L71.3028 60.5905L71.279 60.5408L71.2483 60.4129L71.2461 60.3488L71.2227 60.302L71.2211 60.2202L71.1977 60.1734L71.1833 60.1049L71.1803 60.035L71.1519 59.9947L71.1374 59.9263L71.1291 59.86L71.124 59.7962L71.1034 59.7256L71.0781 59.6175L71.0709 59.5599L71.0912 59.49L71.1307 59.4558L71.1953 59.4359L71.3061 59.3897L71.3769 59.3721L71.435 59.3706L71.5057 59.3529L71.5804 59.3435L71.6206 59.315L71.7038 59.3045L71.7566 59.2832L71.9404 59.2601L71.9925 59.2799L72.0485 59.3314L72.068 59.3699L72.1116 59.5079L72.125 59.5677L72.1261 59.6231L72.1507 59.702L72.1781 59.8274L72.1789 59.88L72.2418 60.1473L72.2666 60.2056L72.2746 60.269L72.2998 60.3302L72.2988 60.3919L72.3187 60.4567L72.3274 60.5259L72.3504 60.5698L72.4383 60.5499L72.4831 60.4887L72.5271 60.3748L72.5414 60.3027L72.585 60.186L72.6115 60.1183L72.624 60.0786L72.6534 60.0105L72.6655 59.9446L72.6866 59.8804L72.7228 59.8203L72.7302 59.7637L72.7621 59.7158L72.7854 59.6455L72.8065 59.5814L72.82 59.5269L72.8426 59.4743L72.8644 59.3925L72.8905 59.3453L72.9066 59.2877L72.9552 59.1645L72.9778 59.1118L73.0057 59.0556L73.0563 59.0171L73.1729 58.9702L73.2142 58.9503L73.3452 58.925L73.4141 58.9164L73.46 58.9106L73.5178 58.8828L73.581 58.8748L73.6345 58.8593L73.6919 58.8521L73.7569 58.8351L73.82 58.8272L73.922 58.8026L73.9959 58.8109L74.0441 58.8458L74.056 58.8941L74.0633 58.9517L74.0247 59.062L74.0118 59.1221L73.9925 59.1773L73.9739 59.2381L73.9417 59.2832L73.9145 59.3452L73.9059 59.4165L73.8652 59.5329L73.8344 59.5895L73.8204 59.641L73.8058 59.7102L73.7847 59.7509L73.7661 59.8118L73.7518 59.8839L73.7261 59.9339L73.7025 60.0013L73.6874 60.0442L73.6685 60.1022L73.6517 60.1775L73.6234 60.2309L73.6091 60.2795L73.5884 60.3465L73.5583 60.4089L73.5426 60.4694L73.5287 60.5209L73.4997 60.5685L73.4779 60.6269L73.4636 60.6755L73.5153 60.7158L73.5793 60.7605L73.6321 60.786L73.6828 60.8177L73.731 60.876L73.7766 60.9142L73.8352 60.9624L73.9233 61.0597L73.9485 61.0975L73.9931 61.1504L74.0305 61.1926L74.0758 61.2513L74.1161 61.293L74.1502 61.3326L74.1909 61.3773L74.2312 61.4425L74.2818 61.4741L74.311 61.5202L74.3631 61.5635L74.3894 61.6099L74.4422 61.6589L74.4789 61.7187L74.5185 61.7547L74.5566 61.8026L74.5882 61.8454L74.6454 61.9056L74.6785 61.9365L74.7195 61.9841L74.7572 62.0291L74.799 62.0824L74.8659 62.1735L74.8936 62.2315L74.9116 62.3053L74.8733 62.3482L74.8295 62.3947L74.6935 62.4265L74.6404 62.4449L74.578 62.4586L74.5166 62.4575L74.4491 62.4778L74.3992 62.4987L74.3314 62.516L74.2711 62.5236L74.1494 62.5536L74.0862 62.5615L74.0334 62.5594L73.9631 62.58L73.9103 62.5544L73.8496 62.5357L73.8097 62.5202L73.7414 62.4644L73.6874 62.3834L73.6367 62.3283L73.6033 62.271L73.567 62.2376L73.513 62.1799L73.4943 62.1472L73.4433 62.0892L73.4001 62.0478L73.3616 61.997L73.3361 61.9563L73.2904 61.8947L73.2426 61.8627L73.2181 61.8072L73.1649 61.7554L73.1264 61.7046L73.0951 61.6646L73.0289 61.5793L72.9847 61.5292L72.9294 61.4835L72.8762 61.4551L72.8323 61.4313L72.7738 61.4299L72.7096 61.4292L72.6119 61.4415L72.5671 61.4559L72.5765 61.5309L72.5977 61.5838L72.6065 61.653L72.617 61.7131L72.6368 61.778L72.6639 61.9005L72.6719 61.9639L72.6795 62.0244L72.7101 62.082L72.7044 62.1296L72.735 62.1872L72.7448 62.265L72.7621 62.3097L72.7622 62.3799L72.782 62.4447L72.79 62.5082L72.807 62.5734L72.8506 62.6879L72.8435 62.7473L72.822 62.8086L72.7726 62.8558L72.7166 62.8746L72.5939 62.9193L72.5479 62.9251L72.4833 62.9449L72.2963 62.989L72.2159 62.9991L72.1527 63.0071L72.0303 63.0313L72.0235 63.0234Z" fill="#42210B"/>
</g>
<path d="M36.3861 15.0577L36.3288 15.0739L36.2585 15.0946L36.21 15.096L36.1522 15.1095L36.0335 15.1127L35.9724 15.1023L35.9021 15.123L35.8536 15.1054L35.7906 15.1197L35.7174 15.1002L35.6741 15.1008L35.602 15.0893L35.558 15.0846L35.4875 15.0647L35.4382 15.0419L35.384 15.0224L35.332 14.9999L35.2847 14.9713L35.2263 14.9415L35.1835 14.9069L35.1422 14.8639L35.091 14.8467L35.0479 14.7905L35.0032 14.7615L34.9691 14.7121L34.9324 14.663L34.8723 14.5631L34.8554 14.5004L34.8585 14.4458L34.8898 14.398L34.9266 14.3711L35.0316 14.2886L35.0711 14.2614L35.1243 14.235L35.1919 14.1956L35.2394 14.1673L35.2964 14.1295L35.347 14.1034L35.4515 14.0372L35.4955 14.0229L35.554 14.0147L35.6059 14.0372L35.6555 14.0817L35.7282 14.1555L35.7702 14.2038L35.8222 14.2263L35.8817 14.245L35.9329 14.2622L36.0479 14.2705L36.1063 14.2623L36.1515 14.2749L36.2141 14.258L36.3344 14.2465L36.3857 14.2257L36.4518 14.1947L36.5148 14.1805L36.5642 14.1654L36.6076 14.1268L36.6623 14.092L36.7056 14.0534L36.7408 13.9373L36.7164 13.8215L36.6801 13.7751L36.6342 13.7382L36.569 13.7175L36.5204 13.7189L36.4597 13.7112L36.4074 13.686L36.3376 13.6904L36.2936 13.6858L36.2226 13.7012L36.0567 13.7164L36.0081 13.7178L35.9429 13.7161L35.8825 13.73L35.8286 13.7321L35.774 13.729L35.7133 13.7213L35.6533 13.7188L35.5876 13.7335L35.5395 13.7186L35.4829 13.7211L35.4291 13.7043L35.3733 13.6931L35.3023 13.6896L35.2583 13.6849L35.1924 13.659L35.1499 13.6459L35.0782 13.6181L35.0346 13.5971L34.9823 13.5719L34.9384 13.5293L34.8845 13.5125L34.8501 13.4604L34.8107 13.4307L34.7756 13.3733L34.7316 13.3307L34.6927 13.2847L34.6783 13.2406L34.6371 13.1787L34.6289 13.1202L34.6059 13.072L34.5764 13.0165L34.5625 12.9561L34.5369 12.8513L34.5329 12.7841L34.5391 12.7317L34.5312 12.6759L34.5317 12.6216L34.5402 12.5662L34.5438 12.4953L34.5674 12.4513L34.5736 12.3989L34.5954 12.3417L34.6061 12.2832L34.637 12.2328L34.6708 12.1847L34.6926 12.1464L34.7321 12.1002L34.7668 12.0384L34.8044 12.0169L34.8576 11.9714L34.8896 11.929L34.9443 11.8942L34.9884 11.8609L35.0253 11.8341L35.0876 11.7955L35.137 11.7614L35.2298 11.7077L35.2803 11.6817L35.3387 11.6735L35.4045 11.6398L35.4512 11.6251L35.5112 11.6086L35.5625 11.5878L35.6278 11.5705L35.6836 11.5627L35.8031 11.5459L35.8484 11.5205L35.9057 11.5233L35.9588 11.5159L36.0742 11.5078L36.1399 11.4931L36.1949 11.4989L36.2959 11.4847L36.374 11.5009L36.4112 11.4956L36.4772 11.5026L36.528 11.5172L36.5887 11.5249L36.6532 11.5402L36.7032 11.5684L36.7465 11.5867L36.8056 11.6218L36.8492 11.6428L36.9034 11.6623L36.9614 11.7083L37.0091 11.7395L37.0402 11.7677L37.0753 11.8251L37.1234 11.859L37.1549 11.8898L37.2294 11.9959L37.249 12.0392L37.244 12.0995L37.2268 12.1507L37.1872 12.1969L37.0952 12.2559L37.0401 12.2881L37.0074 12.3252L36.9618 12.3668L36.8991 12.4028L36.8683 12.4342L36.817 12.4549L36.7744 12.4989L36.6646 12.5658L36.6186 12.5858L36.5613 12.583L36.5211 12.567L36.4753 12.5301L36.4064 12.4449L36.3557 12.3924L36.306 12.3669L36.2605 12.3516L36.204 12.3351L36.149 12.3103L36.0785 12.3094L36.0181 12.3233L35.9581 12.3209L35.8439 12.3369L35.8002 12.3539L35.7303 12.3773L35.6908 12.4045L35.6383 12.4363L35.5745 12.4642L35.5441 12.4983L35.5121 12.5597L35.5135 12.6083L35.5288 12.7173L35.5587 12.7754L35.6121 12.7896L35.6701 12.8167L35.716 12.8346L35.7797 12.8446L35.845 12.8463L35.9042 12.8434L35.9547 12.8363L36.0135 12.8497L36.0826 12.84L36.1422 12.8398L36.2485 12.8248L36.3145 12.8318L36.3578 12.8122L36.423 12.8139L36.4803 12.8166L36.5316 12.8149L36.6006 12.8241L36.6602 12.8239L36.7133 12.8164L36.7702 12.8355L36.823 12.8444L36.8848 12.8411L36.9341 12.864L36.9918 12.8694L37.0452 12.9026L37.0998 12.9057L37.1529 12.9362L37.2041 12.9534L37.2503 12.993L37.3053 13.0178L37.3382 13.0593L37.3795 13.1022L37.4382 13.1346L37.459 13.1859L37.4938 13.2407L37.5316 13.2787L37.5607 13.3315L37.5932 13.3893L37.6158 13.4539L37.6298 13.4953L37.6524 13.5598L37.655 13.6164L37.6923 13.7277L37.7005 13.7862L37.7041 13.8507L37.7021 13.9133L37.7039 13.9646L37.6935 14.0257L37.6873 14.078L37.6769 14.1391L37.6548 14.1937L37.6277 14.2517L37.6147 14.2942L37.5876 14.3522L37.5492 14.4064L37.5282 14.45L37.4932 14.4901L37.4503 14.5314L37.4152 14.5716L37.3772 14.6094L37.3244 14.6575L37.2863 14.6954L37.2369 14.7294L37.1981 14.762L37.1373 14.7922L37.0367 14.847L36.9853 14.8868L36.9276 14.9003L36.8854 14.9279L36.8323 14.9354L36.7787 14.9592L36.7164 14.9977L36.6625 14.9999L36.6101 15.0316L36.5402 15.036L36.5026 15.0576L36.3876 15.0683L36.3861 15.0577Z" fill="#42210B"/>
<path d="M38.4145 14.5727L38.3625 14.5692L38.317 14.5539L38.272 14.5033L38.2463 14.4554L38.2275 14.3605L38.2254 14.2876L38.2062 14.2469L38.2048 14.1794L38.1977 14.1289L38.1906 14.0784L38.1664 14.0222L38.1586 13.9663L38.1496 13.9026L38.1251 13.8437L38.1309 13.7887L38.1234 13.7355L38.0906 13.6751L38.0956 13.6147L38.0817 13.5733L38.0621 13.511L38.0626 13.4568L38.0468 13.4021L38.0367 13.3303L38.0171 13.287L38.0153 13.2168L38.0071 13.1583L37.9833 13.1237L37.9679 13.0527L37.9691 13.0037L37.9518 12.9384L37.9325 12.8978L37.9376 12.8374L37.9112 12.7842L37.9094 12.714L37.8892 12.6084L37.8711 12.5568L37.8632 12.501L37.855 12.4425L37.8301 12.381L37.8291 12.316L37.8209 12.2576L37.7963 12.2177L37.8006 12.152L37.7928 12.0962L37.766 12.0403L37.7654 11.9781L37.7507 11.9314L37.7261 11.8725L37.7319 11.8175L37.7021 11.7593L37.7022 11.7024L37.6955 11.6546L37.6679 11.5934L37.6484 11.4931L37.6419 11.3694L37.6359 11.3269L37.6546 11.2673L37.6854 11.2359L37.7428 11.2197L37.843 11.1812L37.9022 11.1783L37.9687 11.169L38.0124 11.152L38.0788 11.1427L38.1225 11.1257L38.1836 11.1171L38.2496 11.1051L38.3017 11.0897L38.4026 11.0755L38.4584 11.0866L38.5119 11.1008L38.538 11.1323L38.5773 11.181L38.5927 11.29L38.6208 11.4134L38.6189 11.457L38.6407 11.5163L38.6486 11.5721L38.6655 11.6348L38.6806 11.6841L38.6888 11.7426L38.697 11.8011L38.6984 11.8497L38.7218 11.9196L38.7232 11.9682L38.7581 12.1394L38.7815 12.1903L38.7787 12.2476L38.796 12.313L38.802 12.3555L38.8212 12.4151L38.831 12.4842L38.8584 12.5833L38.8625 12.6505L38.8699 12.7037L38.877 12.7542L38.8985 12.8108L38.9143 12.8655L38.9226 12.9239L38.9439 13.0375L38.951 13.088L38.9607 13.1571L38.9751 13.2011L38.9901 13.2695L39.0055 13.3215L39.0123 13.3694L39.0216 13.4358L39.0416 13.4818L39.0438 13.5357L39.0656 13.595L39.0908 13.7161L39.088 13.7734L39.1079 13.8763L39.1301 13.9382L39.1448 13.9849L39.1542 14.0514L39.1605 14.0966L39.1642 14.1611L39.1969 14.2784L39.1915 14.3172L39.1614 14.3729L39.1397 14.4112L39.0892 14.4183L38.9768 14.4476L38.9309 14.4676L38.8618 14.4773L38.8071 14.4931L38.7433 14.5021L38.7016 14.5134L38.6325 14.5231L38.5888 14.5401L38.5356 14.5476L38.4168 14.5697L38.4145 14.5727Z" fill="#42210B"/>
<path d="M40.1422 14.2314L40.0697 14.2362L40.023 14.2509L39.9035 14.2677L39.8481 14.2592L39.79 14.2511L39.7503 14.1997L39.714 14.1534L39.6983 14.0417L39.6923 13.9802L39.6853 13.9297L39.6641 13.8758L39.6427 13.7623L39.6247 13.6916L39.6172 13.6385L39.6151 13.5846L39.5951 13.5196L39.599 13.4703L39.5775 13.4137L39.578 13.3594L39.5687 13.293L39.5513 13.2466L39.5435 13.1908L39.5148 13.1217L39.5081 13.0738L39.5097 13.0085L39.4836 12.958L39.4751 12.8969L39.4775 12.8369L39.4503 12.7784L39.4436 12.7305L39.4467 12.6759L39.4154 12.6071L39.4151 12.5475L39.3974 12.4985L39.3812 12.4412L39.3734 12.3854L39.3591 12.3223L39.3649 12.2673L39.3299 12.153L39.3228 12.1025L39.3191 12.038L39.3041 11.9886L39.2958 11.9301L39.2834 11.8804L39.2619 11.8238L39.2537 11.7653L39.2497 11.6981L39.243 11.6503L39.2207 11.5883L39.2185 11.5344L39.2088 11.4653L39.1831 11.4175L39.1749 11.359L39.1678 11.3085L39.1577 11.2367L39.1411 11.1957L39.13 11.078L39.1374 11.0146L39.1409 10.9626L39.1975 10.9222L39.2386 10.9056L39.3627 10.8827L39.4158 10.8752L39.4576 10.8639L39.5829 10.8301L39.6361 10.8226L39.6805 10.8109L39.745 10.8073L39.8088 10.7983L39.9174 10.7803L39.9739 10.7778L40.0274 10.792L40.1186 10.8822L40.1459 10.9217L40.1921 10.9613L40.2345 11.0122L40.2773 11.0469L40.3067 11.1023L40.3609 11.1408L40.3904 11.1773L40.4367 11.2169L40.4711 11.269L40.5139 11.3036L40.5563 11.3546L40.6025 11.3941L40.632 11.4306L40.6728 11.49L40.7683 11.5714L40.7951 11.6083L40.8432 11.6611L40.8857 11.6931L40.9186 11.7346L40.9716 11.784L41 11.8315L41.0492 11.8734L41.1299 11.9461L41.162 12.0012L41.2033 12.0442L41.2324 12.078L41.3183 12.1689L41.3505 12.2051L41.3657 12.2165L41.3949 12.2314L41.4127 12.2234L41.4173 12.1984L41.4106 12.1506L41.3921 12.1152L41.3778 12.0712L41.368 12.04L41.3586 11.9736L41.3348 11.92L41.3266 11.8615L41.2994 11.822L41.2904 11.7582L41.2833 11.7077L41.2588 11.6488L41.2528 11.6063L41.2398 11.4753L41.2187 11.4214L41.2112 11.3682L41.2106 11.3249L41.1936 11.2623L41.1847 11.1985L41.1681 11.1575L41.1511 11.0948L41.144 11.0443L41.134 10.9346L41.1239 10.8628L41.102 10.8225L41.0795 10.701L41.0827 10.6464L41.1067 10.5861L41.1482 10.5532L41.2055 10.537L41.3164 10.497L41.3809 10.4934L41.4288 10.4866L41.491 10.467L41.6159 10.4495L41.679 10.4352L41.7917 10.4085L41.8536 10.4052L41.915 10.4373L41.943 10.4821L41.9641 10.5171L41.9802 10.6314L42.0025 10.6933L42.0107 10.7518L42.0185 10.8076L42.0282 10.8767L42.0425 10.9397L42.0565 10.9811L42.0594 11.0403L42.0831 11.0939L42.0815 11.1592L42.0973 11.2139L42.107 11.283L42.1293 11.3259L42.1337 11.3958L42.1511 11.4421L42.1551 11.5093L42.1625 11.5625L42.1765 11.6228L42.1839 11.676L42.2088 11.7375L42.2159 11.788L42.2287 11.8404L42.2256 11.8951L42.2501 11.954L42.248 12.0166L42.2654 12.0629L42.2732 12.1188L42.2807 12.1909L42.2961 12.2429L42.304 12.2987L42.3122 12.3572L42.3211 12.421L42.3457 12.4609L42.3501 12.5307L42.3667 12.5908L42.3862 12.691L42.3906 12.7609L42.4057 12.8102L42.4238 12.8619L42.4335 12.931L42.4459 12.9807L42.4552 13.0472L42.4532 13.0908L42.4614 13.1493L42.4821 13.2196L42.5024 13.3251L42.5209 13.3794L42.5256 13.4519L42.5426 13.4956L42.5591 13.6126L42.5605 13.6612L42.5455 13.7283L42.4942 13.768L42.4448 13.7831L42.3374 13.8091L42.2649 13.8138L42.0986 13.8453L42.0306 13.863L41.9669 13.872L41.9152 13.8901L41.7937 13.9126L41.7497 13.9079L41.6898 13.8865L41.5932 13.7971L41.5706 13.7515L41.5312 13.7218L41.4906 13.6841L41.446 13.6362L41.399 13.5913L41.3699 13.5575L41.3221 13.5262L41.2976 13.4673L41.2582 13.4377L41.2082 13.3905L41.1688 13.3418L41.1294 13.3121L41.0969 13.2733L41.0587 13.2326L41.0049 13.1778L40.9693 13.1368L40.9387 13.0923L40.905 13.0645L40.8573 13.0143L40.8209 12.9869L40.7694 12.948L40.7346 12.8933L40.6566 12.8203L40.629 12.7781L40.5805 12.7225L40.5362 12.6773L40.5101 12.6457L40.4711 12.5997L40.42 12.5445L40.3878 12.5084L40.3466 12.4654L40.3261 12.4547L40.2995 12.4585L40.2938 12.4755L40.3005 12.5234L40.319 12.5777L40.3363 12.643L40.343 12.6909L40.363 12.7558L40.4112 12.9252L40.4111 12.9821L40.4284 13.0475L40.4366 13.1059L40.4542 13.2119L40.47 13.2666L40.479 13.3303L40.4982 13.371L40.5003 13.4439L40.5109 13.4803L40.5138 13.5396L40.5239 13.6113L40.5416 13.6603L40.5616 13.7063L40.5709 13.7727L40.5674 13.8247L40.5924 13.8673L40.6088 13.9842L40.6014 14.0476L40.5858 14.0905L40.5356 14.1382L40.3735 14.1799L40.315 14.1881L40.1426 14.2341L40.1422 14.2314Z" fill="#42210B"/>
<path d="M44.4678 13.4912L44.4013 13.5005L44.3599 13.5145L44.2935 13.5238L44.2442 13.5199L44.1831 13.5095L44.1129 13.5113L44.0571 13.5191L43.9968 13.514L43.9524 13.5067L43.8268 13.481L43.7669 13.4786L43.7081 13.4652L43.6512 13.446L43.5977 13.4319L43.553 13.4029L43.4961 13.3838L43.4294 13.3525L43.2907 13.2528L43.2605 13.211L43.2108 13.1854L43.1681 13.1318L43.1234 13.0839L43.0962 13.0443L43.0507 13.0101L43.0254 12.9459L42.9868 12.9025L42.9676 12.8429L42.9502 12.7965L42.92 12.7547L42.9011 12.6977L42.8933 12.6419L42.8752 12.5713L42.8564 12.5143L42.8443 12.4672L42.8328 12.3469L42.8129 12.2819L42.8058 12.2314L42.7983 12.1783L42.7886 12.1092L42.7733 12.0002L42.7487 11.9413L42.7416 11.8908L42.7437 11.8282L42.7263 11.7819L42.705 11.6683L42.6952 11.5992L42.6712 11.4861L42.6543 11.4234L42.6601 11.3684L42.6508 11.3019L42.6543 11.2499L42.6613 11.1839L42.6625 11.1349L42.6687 11.0826L42.6696 11.012L42.6815 10.9615L42.69 10.9061L42.7163 10.8428L42.7187 10.8018L42.7518 10.7294L42.7614 10.682L42.7964 10.6418L42.825 10.5945L42.8928 10.4982L42.9373 10.4486L42.9636 10.4042L43.0183 10.3505L43.0579 10.3232L43.097 10.2933L43.1373 10.2524L43.1932 10.2066L43.2984 10.1648L43.3478 10.1307L43.4007 10.1016L43.4477 10.0896L43.5146 10.0639L43.5716 10.0451L43.6156 10.0307L43.665 9.99669L43.7782 9.97266L43.9562 9.94764L44.0279 9.93755L44.0769 9.91983L44.1471 9.91809L44.1972 9.92732L44.2621 9.90735L44.3172 9.91317L44.3672 9.92239L44.4332 9.92938L44.4944 9.92079L44.5436 9.94367L44.6059 9.94306L44.673 9.95801L44.7306 9.98244L44.7823 9.98332L44.9009 10.0371L44.9399 10.0641L44.9896 10.0897L45.0415 10.1122L45.0923 10.1457L45.1442 10.1872L45.195 10.2207L45.2264 10.2705L45.2779 10.3094L45.3172 10.358L45.3521 10.3938L45.3816 10.4493L45.416 10.5013L45.4651 10.6001L45.4946 10.6556L45.4774 10.7068L45.4484 10.7515L45.4089 10.7978L45.3161 10.8514L45.255 10.879L45.1512 10.9505L45.0996 10.9686L45.0475 11.003L44.9962 11.0428L44.9366 11.062L44.8427 11.1077L44.7911 11.1258L44.7209 11.1275L44.686 11.0918L44.6409 11.0602L44.5785 10.9632L44.5415 10.9115L44.4914 10.8833L44.4513 10.8483L44.4039 10.8197L44.3546 10.7969L44.2431 10.7746L44.174 10.7843L44.127 10.7774L44.0135 10.7987L43.9432 10.8194L43.903 10.8414L43.846 10.8602L43.8023 10.8772L43.7578 10.9078L43.7126 10.9521L43.6776 10.9923L43.6505 11.0503L43.6363 11.1038L43.6131 11.1504L43.6061 11.2164L43.6113 11.2537L43.6157 11.3235L43.6443 11.4306L43.6453 11.4955L43.6623 11.5392L43.6724 11.611L43.6753 11.6702L43.6945 11.7298L43.702 11.783L43.7098 11.8388L43.7226 11.8912L43.7225 11.9481L43.7425 12.0131L43.742 12.0673L43.7578 12.122L43.7652 12.1752L43.7866 12.2887L43.7967 12.3605L43.8224 12.4084L43.8378 12.4604L43.8806 12.495L43.9086 12.5399L43.945 12.5863L44.0071 12.6046L44.0465 12.6343L44.1016 12.6401L44.1657 12.6528L44.2055 12.6472L44.2639 12.658L44.3224 12.6498L44.4405 12.6223L44.5043 12.6134L44.5521 12.5877L44.6156 12.5571L44.6646 12.5393L44.6962 12.4942L44.7418 12.4526L44.7643 12.4007L44.7891 12.3457L44.8108 12.3074L44.8468 12.1777L44.8617 12.1295L44.9013 12.0833L44.9442 12.061L44.9996 12.0695L45.1184 12.0663L45.1737 12.0748L45.2466 12.0917L45.2974 12.1062L45.3687 12.1124L45.4142 12.1277L45.4848 12.1287L45.5512 12.1383L45.6695 12.1704L45.7097 12.1865L45.7445 12.2222L45.7843 12.2736L45.7826 12.3388L45.7649 12.4443L45.7564 12.4997L45.7441 12.5665L45.7091 12.6066L45.6961 12.6681L45.6717 12.7257L45.6416 12.7815L45.6157 12.8285L45.519 12.9694L45.4707 13.0115L45.4368 13.0406L45.3828 13.0997L45.3418 13.1353L45.306 13.1511L45.257 13.1878L45.2064 13.2329L45.0902 13.2926L45.0484 13.3039L44.9903 13.3337L44.9481 13.3613L44.8835 13.384L44.8304 13.3914L44.7632 13.4144L44.7127 13.4215L44.6587 13.4427L44.6003 13.4509L44.4754 13.4684L44.4678 13.4912Z" fill="#42210B"/>
<path d="M46.426 13.0727L46.3744 13.0718L46.3149 13.0531L46.2926 13.0102L46.2681 12.9513L46.2452 12.8461L46.224 12.7922L46.2151 12.7284L46.2083 12.6805L46.2047 12.616L46.1881 12.556L46.186 12.5021L46.1763 12.433L46.1517 12.3741L46.1357 12.2598L46.1274 12.2013L46.131 12.1494L46.1098 12.0954L46.1009 12.0316L46.0851 11.9769L46.0783 11.9291L46.0651 11.7575L46.0504 11.6918L46.0335 11.6291L46.0256 11.5733L46.0261 11.5191L46.0058 11.4704L46.0028 11.4112L45.9802 11.3466L45.9902 11.3019L45.982 11.2434L45.9643 11.1754L45.9576 11.1276L45.9505 11.0771L45.9369 11.0194L45.92 10.9567L45.8893 10.7767L45.8765 10.7243L45.8698 10.6765L45.8741 10.6108L45.8519 10.5489L45.8554 10.4969L45.8328 10.4323L45.8321 10.3891L45.8148 10.3237L45.8126 10.2698L45.7951 10.1449L45.7872 10.0891L45.7798 10.0359L45.7632 9.97594L45.7475 9.86431L45.7457 9.81307L45.7648 9.75618L45.8025 9.71565L45.8663 9.70669L46.0311 9.66456L46.0975 9.65522L46.1567 9.65232L46.211 9.63385L46.2713 9.63892L46.3245 9.63145L46.3845 9.61489L46.4429 9.60668L46.4934 9.59958L46.5458 9.5868L46.6654 9.56999L46.7185 9.56252L46.7728 9.54405L46.8306 9.53052L46.8981 9.52915L46.9566 9.52094L47.0097 9.51347L47.0686 9.48893L47.1217 9.48146L47.1722 9.47437L47.236 9.4654L47.2967 9.45416L47.3552 9.44594L47.403 9.43922L47.4615 9.431L47.5078 9.41365L47.5788 9.41723L47.6259 9.40519L47.6749 9.38747L47.7451 9.38573L47.802 9.36688L47.8544 9.37308L47.9668 9.34373L48.0275 9.35146L48.0684 9.37281L48.1139 9.40707L48.1441 9.46787L48.1685 9.58369L48.1853 9.70329L48.1833 9.76591L48.2067 9.81682L48.2077 9.88173L48.2264 10.0146L48.2278 10.0632L48.2003 10.1186L48.1665 10.1477L48.1061 10.1806L47.9838 10.1978L47.9406 10.1984L47.8836 10.2173L47.764 10.2341L47.7109 10.2415L47.6498 10.2501L47.5924 10.2663L47.5287 10.2753L47.4767 10.2718L47.4151 10.2967L47.3062 10.312L47.239 10.316L47.1938 10.3223L47.1293 10.345L47.0788 10.3521L47.0245 10.3516L46.9634 10.3601L46.9015 10.3824L46.8191 10.394L46.7997 10.4482L46.8151 10.5192L46.8222 10.5697L46.8322 10.6415L46.8401 10.6973L46.8521 10.7634L46.8762 10.8196L46.9761 10.7974L47.0285 10.7846L47.0843 10.7768L47.1374 10.7693L47.1845 10.7573L47.251 10.748L47.3029 10.7515L47.3679 10.7315L47.4077 10.7259L47.473 10.7086L47.5209 10.7019L47.5907 10.6975L47.6298 10.6866L47.6867 10.6867L47.7509 10.6614L47.7946 10.6634L47.9157 10.6383L47.9745 10.6517L48.0276 10.6632L48.0582 10.7077L48.0884 10.7685L48.1045 10.8828L48.1192 10.9295L48.1198 10.9917L48.1451 11.0559L48.1548 11.125L48.1566 11.1763L48.1726 11.2906L48.1721 11.3638L48.1523 11.3964L48.1143 11.4343L48.0573 11.4721L47.9422 11.4828L47.8838 11.4911L47.8211 11.508L47.774 11.52L47.7198 11.5195L47.67 11.5319L47.5998 11.5527L47.5554 11.5453L47.4912 11.5706L47.4309 11.5655L47.3826 11.5886L47.3223 11.5835L47.2134 11.5988L47.1655 11.6245L47.1105 11.6187L47.0224 11.6474L47.0101 11.6951L47.0195 11.7616L47.0178 11.8269L47.0298 11.874L47.0396 11.9431L47.0611 11.9997L47.0556 12.0573L47.0961 12.095L47.1929 12.0895L47.2506 12.076L47.3011 12.0689L47.3478 12.0542L47.4089 12.0456L47.5152 12.0307L47.5737 12.0225L47.6363 12.0055L47.6986 12.0049L47.7464 11.9982L47.8022 11.9904L47.8554 11.9829L47.9146 11.961L47.9678 11.9535L48.033 11.9552L48.0767 11.9382L48.1363 11.938L48.1921 11.9301L48.2536 11.9052L48.3113 11.9107L48.4263 11.881L48.4897 11.8883L48.5272 11.9047L48.5639 11.9538L48.5949 12.0009L48.611 12.1152L48.6264 12.1672L48.6335 12.2177L48.6304 12.2724L48.6375 12.3229L48.6563 12.3798L48.6566 12.4394L48.6799 12.5473L48.6797 12.6042L48.6534 12.6486L48.6059 12.6959L48.5569 12.7136L48.4506 12.7286L48.3922 12.7368L48.3257 12.7461L48.2817 12.7604L48.224 12.774L48.1617 12.7746L48.0987 12.7889L48.0444 12.7884L47.9962 12.8114L47.9377 12.8196L47.8857 12.8161L47.8348 12.8395L47.7726 12.8401L47.7149 12.8536L47.6511 12.8626L47.6022 12.8614L47.5437 12.8696L47.4845 12.8915L47.4374 12.9035L47.3125 12.921L47.2533 12.9239L47.199 12.9424L47.1474 12.9415L47.0969 12.9486L47.0262 12.9667L46.9818 12.9784L46.9287 12.9858L46.8573 12.9986L46.8076 12.992L46.7419 13.0067L46.6356 13.0216L46.581 13.0374L46.5267 13.0369L46.4071 13.0537L46.426 13.0727Z" fill="#42210B"/>
<path d="M50.795 12.3687L50.7613 12.3409L50.7201 12.2979L50.6902 12.2587L50.6741 12.1444L50.6595 12.0787L50.6505 12.015L50.6571 11.9652L50.6443 11.9128L50.6236 11.8426L50.6229 11.7993L50.6136 11.7329L50.5997 11.6725L50.5922 11.6193L50.5863 11.5578L50.5852 11.5119L50.5819 11.45L50.5623 11.3877L50.5602 11.3338L50.5417 11.2795L50.5415 11.2199L50.5223 11.1603L50.5273 11.0999L50.5058 11.0433L50.5067 10.9917L50.4985 10.9333L50.4853 10.8782L50.4817 10.8137L50.4696 10.7666L50.4446 10.5885L50.4299 10.5418L50.4206 10.4753L50.4275 10.4283L50.4136 10.3679L50.3936 10.303L50.4002 10.2532L50.3946 10.2134L50.335 10.2326L50.2947 10.2735L50.238 10.314L50.1921 10.334L50.1434 10.3923L50.0537 10.4483L50.0031 10.4744L49.9462 10.4932L49.8347 10.471L49.7983 10.4435L49.7363 10.3493L49.695 10.3063L49.6682 10.2504L49.6171 10.1953L49.5841 10.1538L49.5489 10.1154L49.4476 9.97247L49.4257 9.9132L49.4521 9.81192L49.4875 9.75545L49.5897 9.6923L49.6217 9.64986L49.6779 9.6257L49.7198 9.57646L49.7597 9.55188L49.808 9.50986L49.8498 9.47959L49.8897 9.43603L49.9456 9.40921L50.0387 9.33921L50.0714 9.30209L50.1645 9.23208L50.2037 9.18321L50.2642 9.15033L50.3098 9.10868L50.3444 9.08485L50.4398 9.01182L50.485 8.98649L50.5447 8.94829L50.5952 8.9412L50.7151 8.92705L50.7861 8.91165L50.8271 8.89504L50.8947 8.89368L51.0002 8.87343L51.0719 8.88232L51.1083 8.90973L51.1424 8.94017L51.173 9.00363L51.194 9.11451L51.2064 9.16426L51.2074 9.22916L51.2247 9.27551L51.2341 9.34195L51.2347 9.4042L51.2582 9.57164L51.2778 9.63393L51.2724 9.69161L51.2859 9.74933L51.2896 9.81387L51.2955 9.85639L51.3144 9.91337L51.3241 9.98247L51.3243 10.0421L51.3428 10.0964L51.3545 10.1408L51.3555 10.2057L51.3587 10.2676L51.3723 10.3253L51.3896 10.3717L51.3944 10.4442L51.3943 10.5011L51.4143 10.5471L51.4157 10.6146L51.433 10.661L51.4344 10.7285L51.4475 10.7836L51.4463 10.8326L51.4655 10.8922L51.4684 10.9514L51.4827 11.0145L51.4894 11.0623L51.5041 11.128L51.5032 11.1796L51.5061 11.2388L51.5261 11.2848L51.5229 11.3584L51.5364 11.4162L51.5525 11.5304L51.5638 11.5722L51.564 11.6318L51.5808 11.7514L51.6061 11.8156L51.6079 11.8668L51.6214 11.9246L51.6247 11.9864L51.6264 12.0946L51.6342 12.1504L51.6185 12.2123L51.5699 12.2327L51.5235 12.25L51.3929 12.2846L51.3451 12.2913L51.2863 12.2969L51.2286 12.3104L51.1595 12.3201L51.1059 12.325L51.0509 12.3381L50.9871 12.3471L50.7996 12.3626L50.795 12.3687Z" fill="#42210B"/>
<path d="M53.4557 12.0739L53.39 12.0886L53.327 12.0839L53.2261 12.0981L53.1524 12.0949L53.0443 12.0775L52.9813 12.0918L52.9316 12.0853L52.8804 12.0681L52.8266 12.0512L52.7598 12.0389L52.7079 12.0164L52.6521 12.0053L52.5918 11.9812L52.541 11.9667L52.4944 11.9434L52.4493 11.9118L52.4099 11.8632L52.3516 11.8334L52.3178 11.8056L52.275 11.771L52.2334 11.7254L52.1933 11.6714L52.1358 11.59L52.0927 11.5337L52.0458 11.4319L52.0323 11.3742L52.0442 11.3237L52.0636 11.2885L52.1153 11.2324L52.216 11.1776L52.2772 11.1501L52.3217 11.1194L52.3862 11.0968L52.4311 11.0688L52.4797 11.0294L52.5397 11.0129L52.6567 10.9585L52.6974 10.9392L52.7653 10.9595L52.799 10.9873L52.8516 11.0341L52.9095 11.1181L52.9534 11.1607L53.0027 11.1836L53.0543 11.2035L53.1028 11.221L53.168 11.2417L53.2227 11.2448L53.267 11.2521L53.3308 11.2432L53.4458 11.2324L53.493 11.2014L53.5503 11.1852L53.6149 11.1626L53.6548 11.138L53.7084 11.0953L53.7456 11.0521L53.7575 11.0016L53.7853 10.9489L53.7915 10.8966L53.7841 10.8434L53.7959 10.793L53.7749 10.6821L53.7245 10.6702L53.6652 10.6921L53.6121 10.6995L53.5707 10.7135L53.5001 10.7316L53.4576 10.7375L53.4052 10.7503L53.3353 10.7547L53.2302 10.7776L53.163 10.7816L53.1083 10.7785L53.0669 10.7924L52.993 10.7866L52.9504 10.7925L52.8761 10.784L52.8283 10.7907L52.7611 10.7948L52.7125 10.7772L52.6488 10.7672L52.5949 10.7693L52.5403 10.7472L52.4751 10.7455L52.4193 10.7154L52.3833 10.7096L52.328 10.6822L52.276 10.6597L52.2188 10.6189L52.184 10.5832L52.1294 10.561L52.0893 10.507L52.0556 10.4792L52.0169 10.4359L51.9856 10.3861L51.9565 10.3333L51.9384 10.2816L51.9115 10.2258L51.8779 10.179L51.8605 10.1326L51.8447 10.078L51.8354 10.0115L51.834 9.96293L51.8159 9.91126L51.7998 9.79698L51.8015 9.7317L51.7883 9.67664L51.7854 9.61742L51.8022 9.56356L51.8062 9.49525L51.8112 9.43491L51.8281 9.38106L51.8426 9.33023L51.8647 9.27562L51.877 9.22783L51.9109 9.1797L51.9311 9.11181L51.9771 9.07282L52.0049 9.02013L52.0327 8.98641L52.07 8.94323L52.1134 8.90461L52.1681 8.86982L52.2114 8.8312L52.2567 8.80588L52.3061 8.77183L52.3562 8.7431L52.4155 8.72122L52.4702 8.68643L52.5188 8.66604L52.5708 8.6506L52.6255 8.63479L52.6965 8.61939L52.752 8.58991L52.7952 8.58925L52.8598 8.56662L52.9091 8.57053L52.9843 8.54641L53.0906 8.53148L53.1456 8.5373L53.2056 8.52073L53.2721 8.5114L53.3252 8.52291L53.3798 8.52607L53.431 8.52429L53.4921 8.53468L53.5521 8.53709L53.604 8.54063L53.664 8.54304L53.7239 8.56443L53.7758 8.58695L53.8252 8.59086L53.8828 8.61528L53.9366 8.6321L53.9939 8.65387L54.0485 8.69499L54.0864 8.71405L54.1246 8.75475L54.1845 8.79512L54.2147 8.83694L54.2685 8.87274L54.3023 8.90053L54.3291 8.95638L54.3665 9.01075L54.4051 9.0541L54.4225 9.10045L54.4584 9.14418L54.4727 9.20722L54.4931 9.25585L54.5279 9.31059L54.5452 9.35693L54.5599 9.42263L54.5784 9.47695L54.5733 9.53728L54.5914 9.58895L54.6181 9.70173L54.618 9.75867L54.6148 9.81332L54.6272 9.86307L54.6354 9.92154L54.6395 9.98873L54.6534 10.0301L54.6529 10.1034L54.6668 10.1448L54.6761 10.2112L54.6726 10.2632L54.6854 10.3156L54.6925 10.3661L54.7068 10.4292L54.715 10.4876L54.7323 10.553L54.7317 10.6642L54.7384 10.712L54.7527 10.775L54.7559 10.8369L54.752 10.8863L54.7459 10.9386L54.7434 10.9986L54.7266 11.0524L54.7174 11.1215L54.7096 11.1822L54.6978 11.2327L54.6738 11.274L54.6687 11.3343L54.6462 11.3863L54.6077 11.4404L54.5829 11.4954L54.5472 11.5303L54.5251 11.5849L54.4881 11.6307L54.4516 11.6602L54.3703 11.7367L54.3269 11.7753L54.2843 11.8193L54.2349 11.8343L54.1753 11.8725L54.0788 11.9186L54.0249 11.9397L53.9622 11.9567L53.923 11.9866L53.8513 11.9967L53.8038 12.025L53.7419 12.0283L53.6914 12.0544L53.6409 12.0615L53.5677 12.0609L53.4678 12.0831L53.4557 12.0739ZM53.2681 9.9294L53.3213 9.92193L53.3816 9.90803L53.4443 9.89109L53.4883 9.89575L53.5509 9.87881L53.6114 9.84593L53.6502 9.77542L53.6451 9.70026L53.6146 9.57987L53.614 9.5366L53.5864 9.47543L53.5519 9.44233L53.5088 9.40503L53.4732 9.36396L53.4254 9.3517L53.3715 9.33488L53.3025 9.32561L53.2585 9.32095L53.1932 9.31929L53.0744 9.34141L53.0106 9.35037L52.9658 9.37835L52.9172 9.37976L52.8701 9.41078L52.8161 9.45089L52.772 9.48418L52.7438 9.53422L52.7266 9.58542L52.7359 9.65187L52.7403 9.75967L52.7584 9.81133L52.7894 9.85847L52.8212 9.89194L52.8739 9.91977L52.9235 9.94531L52.9872 9.95533L53.1565 9.94509L53.2753 9.92297L53.2681 9.9294Z" fill="#42210B"/>
<path d="M55.5732 11.7167L55.5141 11.6816L55.488 11.6311L55.5086 11.5848L55.5389 11.4532L55.547 11.4141L55.5669 11.3436L55.5882 11.3026L55.5948 11.2339L55.6249 11.1782L55.6421 11.127L55.6502 11.069L55.672 11.0117L55.6948 10.9624L55.7361 10.8509L55.7536 10.8024L55.7572 10.7504L55.7782 10.6878L55.8064 10.6188L55.8251 10.5782L55.8366 10.5251L55.8459 10.4561L55.865 10.3992L55.8879 10.3499L55.9096 10.2926L55.9264 10.2388L55.9413 10.1906L55.9707 10.1295L55.975 10.0829L56.0036 10.0165L56.006 9.95655L56.0399 9.90842L56.0571 9.85722L56.0652 9.79917L56.0949 9.74078L56.1023 9.67742L56.1335 9.62966L56.1538 9.52381L56.1768 9.45555L56.2 9.40892L56.2333 9.29854L56.2437 9.23746L56.2745 9.18705L56.2815 9.12102L56.3101 9.07364L56.3087 9.02506L56.2722 9.01662L56.1474 9.03417L56.0809 9.04351L56.0384 9.04949L55.9739 9.05313L55.9245 9.0682L55.8638 9.06047L55.8038 9.07703L55.7446 9.07993L55.6782 9.08927L55.636 9.0979L55.5635 9.10267L55.4493 9.11873L55.3863 9.13301L55.2242 9.15579L55.1133 9.15781L54.9873 9.16739L54.9308 9.16992L54.8921 9.14554L54.8486 9.10558L54.8335 9.05621L54.808 8.93241L54.8043 8.86788L54.7961 8.80941L54.7883 8.7536L54.7846 8.68907L54.7742 8.61465L54.7626 8.51328L54.759 8.44875L54.7898 8.39834L54.826 8.36616L54.8845 8.33897L55.0003 8.31456L55.1145 8.2985L55.1726 8.30661L55.231 8.29839L55.2735 8.29242L55.3442 8.27436L55.3882 8.27902L55.4554 8.25602L55.5085 8.24855L55.5765 8.24984L55.6349 8.24163L55.745 8.23429L55.7864 8.22034L55.8448 8.21212L55.9029 8.20125L55.9587 8.19341L56.0233 8.18976L56.0791 8.18192L56.139 8.18433L56.2009 8.16208L56.259 8.17019L56.3121 8.16272L56.3782 8.15072L56.4302 8.13528L56.4921 8.13201L56.5452 8.12454L56.5892 8.12919L56.6564 8.10619L56.7164 8.10861L57.0546 8.0665L57.1704 8.06107L57.2303 8.06348L57.2834 8.07499L57.3042 8.12628L57.3341 8.16544L57.3501 8.27973L57.3571 8.38716L57.3657 8.44828L57.3811 8.50032L57.3805 8.61153L57.3978 8.67685L57.3874 8.73793L57.3623 8.79025L57.337 8.89951L57.3201 8.95337L57.2965 9.01632L57.2842 9.06411L57.2632 9.12669L57.2403 9.17598L57.2167 9.23893L57.2078 9.29167L57.1853 9.34362L57.1692 9.40279L57.1501 9.45968L57.1421 9.49876L57.1222 9.56931L57.091 9.61706L57.0813 9.68346L57.068 9.72328L57.039 9.78698L57.0312 9.84769L57.0205 9.90612L56.9874 9.95956L56.9652 10.0142L56.9548 10.0752L56.9441 10.1147L56.9151 10.1784L56.9116 10.2304L56.8838 10.2831L56.8651 10.3426L56.8433 10.3999L56.8345 10.4526L56.8074 10.5106L56.7993 10.5687L56.7791 10.6176L56.7562 10.6669L56.7302 10.7329L56.71 10.7818L56.6897 10.8497L56.6779 10.9001L56.6679 10.9449L56.6522 11.0067L56.6202 11.0682L56.6083 11.1186L56.593 11.1831L56.5667 11.2274L56.5446 11.282L56.5361 11.3374L56.4945 11.4463L56.4636 11.4967L56.4453 11.5399L56.386 11.5808L56.3382 11.5875L56.2854 11.5976L56.2262 11.6195L56.1078 11.6253L56.0478 11.6419L55.976 11.6519L55.9255 11.659L55.8709 11.6559L55.746 11.6734L55.6929 11.6809L55.5653 11.6988L55.5732 11.7167Z" fill="#42210B"/>
<path d="M59.3148 11.35L59.2723 11.356L59.204 11.352L59.1539 11.3428L59.0981 11.3506L59.0393 11.3562L58.9721 11.3602L58.9239 11.3453L58.8666 11.3425L58.8052 11.3295L58.7373 11.3282L58.6899 11.3186L58.639 11.304L58.5886 11.2732L58.5192 11.2612L58.4684 11.2277L58.4241 11.2014L58.3642 11.18L58.3134 11.1655L58.2789 11.1134L58.2335 11.0792L58.1762 11.0574L58.1418 11.0053L58.0971 10.9764L58.0581 10.9304L58.0142 10.8877L57.9892 10.8452L57.9488 10.7885L57.9219 10.7517L57.8867 10.6943L57.8407 10.5977L57.8324 10.5393L57.8451 10.4752L57.8714 10.4308L57.9109 10.4036L58.0222 10.3473L58.0731 10.3239L58.113 10.2993L58.1746 10.2744L58.2152 10.2551L58.276 10.2249L58.3273 10.2041L58.371 10.1682L58.4633 10.1308L58.5723 10.1155L58.6321 10.1559L58.6643 10.192L58.7198 10.298L58.7604 10.3357L58.7906 10.3965L58.838 10.4251L58.877 10.4521L58.9388 10.4868L58.9869 10.5017L59.0457 10.5151L59.1057 10.5175L59.33 10.4941L59.3919 10.4719L59.4565 10.4493L59.4953 10.3977L59.5379 10.3538L59.5521 10.3003L59.5639 10.2499L59.5543 10.1238L59.534 10.0752L59.5159 10.0235L59.4841 9.99006L59.4333 9.95654L59.3866 9.95226L59.3339 9.94341L59.2732 9.93568L59.1483 9.95323L59.0986 9.94666L59.0492 9.96173L58.9722 9.97256L58.8606 9.96927L58.8067 9.97142L58.7518 9.94663L58.7317 9.90065L58.711 9.84937L58.6843 9.73658L58.6939 9.68916L58.6732 9.61889L58.6657 9.56574L58.6711 9.50806L58.6637 9.4549L58.6582 9.33913L58.6504 9.28331L58.6793 9.23859L58.7166 9.19541L58.7804 9.18645L58.8882 9.16316L58.9972 9.14785L59.1023 9.14392L59.1638 9.11901L59.2117 9.11228L59.2755 9.06537L59.3155 9.02181L59.3312 8.95998L59.354 8.91069L59.3357 8.78046L59.3093 8.72726L59.2677 8.68162L59.1756 8.62409L59.1156 8.62168L59.0503 8.62001L58.9206 8.62199L58.867 8.64578L58.815 8.66122L58.7481 8.68688L58.7033 8.71486L58.6535 8.76523L58.6295 8.80654L58.6013 8.85658L58.5787 8.92751L58.5428 9.03825L58.515 9.09095L58.4789 9.12313L58.4333 9.14579L58.3726 9.13806L58.2686 9.13099L58.1977 9.10844L58.151 9.10415L58.1105 9.08546L58.0558 9.0823L57.997 9.06888L57.9398 9.04712L57.8787 9.03673L57.7695 9.01143L57.7141 8.98397L57.6819 8.94784L57.6555 8.89464L57.6572 8.82936L57.6798 8.72048L57.694 8.667L57.7104 8.61048L57.7401 8.5521L57.7581 8.50621L57.7923 8.46075L57.8213 8.39705L57.8548 8.36524L57.8773 8.31329L57.9282 8.2709L57.9477 8.23565L57.985 8.19246L58.0298 8.1455L58.0682 8.11029L58.1336 8.074L58.1716 8.03614L58.2203 8.01575L58.3255 7.95489L58.368 7.94891L58.4364 7.91491L58.479 7.88995L58.5454 7.88062L58.6498 7.85239L58.703 7.82595L58.7588 7.8181L58.8271 7.80308L58.8909 7.79411L58.9338 7.7908L59.0534 7.77399L59.1133 7.77641L59.1824 7.7667L59.2401 7.77214L59.3456 7.77087L59.4146 7.78014L59.4738 7.79621L59.5383 7.79256L59.5781 7.80594L59.6449 7.81824L59.7079 7.84192L59.7624 7.86406L59.8106 7.89795L59.853 7.92993L59.9095 7.94638L59.9607 7.98255L59.9989 8.02325L60.0772 8.11794L60.1231 8.15486L60.1446 8.21147L60.1711 8.24569L60.2112 8.29968L60.2205 8.36612L60.2386 8.41778L60.2715 8.47821L60.2782 8.52604L60.2845 8.5902L60.2915 8.69763L60.2928 8.7652L60.2897 8.81985L60.2911 8.88741L60.2776 8.94621L60.2551 8.99816L60.2478 9.06153L60.2287 9.11842L60.1864 9.165L60.1586 9.2177L60.1323 9.26205L60.0897 9.30598L60.0358 9.34608L60.0171 9.38665L60.0523 9.40609L60.1058 9.43924L60.1649 9.45531L60.2054 9.49298L60.2505 9.52459L60.2911 9.56226L60.3338 9.61587L60.3804 9.65811L60.4065 9.70865L60.4477 9.75164L60.4708 9.79989L60.4855 9.84661L60.5168 9.91538L60.5243 9.96854L60.5355 10.0293L60.5438 10.0878L60.5587 10.1941L60.568 10.2605L60.5584 10.3079L60.5727 10.371L60.5627 10.4347L60.5448 10.4806L60.5465 10.5508L60.5233 10.5975L60.5106 10.6426L60.4775 10.715L60.466 10.7491L60.4397 10.8125L60.4069 10.8496L60.3746 10.9083L60.335 10.9356L60.2829 10.989L60.2392 11.0249L60.1472 11.0839L60.0963 11.1263L60.0458 11.1524L60.0024 11.172L59.9349 11.1924L59.8961 11.2249L59.827 11.2346L59.7685 11.2618L59.7168 11.2799L59.6557 11.2885L59.6041 11.3066L59.5574 11.3023L59.4989 11.3106L59.4287 11.3313L59.3091 11.3481L59.3148 11.35Z" fill="#42210B"/>
</g>
<defs>
<clipPath id="clip0_212_2809">
<rect width="88.9889" height="64" fill="white" transform="translate(0.484375 12.5039) rotate(-8)"/>
</clipPath>
<clipPath id="clip1_212_2809">
<rect width="36.3805" height="4.90023" fill="white" transform="translate(38.3594 63.27) rotate(-7.17937)"/>
</clipPath>
</defs>
</svg>
