<svg width="220" height="64" viewBox="0 0 220 64" fill="none" xmlns="http://www.w3.org/2000/svg">
<g style="mix-blend-mode:luminosity">
<path fill-rule="evenodd" clip-rule="evenodd" d="M85.8203 28.6278V7.99472C85.8203 -2.6649 102.343 -2.6649 102.343 7.99472C101.035 17.9687 85.8203 17.9687 85.8203 28.6278Z" fill="#AC323F"/>
<path fill-rule="evenodd" clip-rule="evenodd" d="M102.343 7.96973V38.2064C102.343 48.8665 85.8203 48.8665 85.8203 38.2064V28.604C85.8203 17.9448 101.035 17.9448 102.343 7.96973Z" fill="#F0555D"/>
<path fill-rule="evenodd" clip-rule="evenodd" d="M102.343 7.96973V38.2064C102.343 48.8665 85.8203 48.8665 85.8203 38.2064V28.604C85.8203 17.9448 101.035 17.9448 102.343 7.96973Z" fill="#F0555D"/>
<path fill-rule="evenodd" clip-rule="evenodd" d="M26.4363 35.6444L17.8149 52.8085C12.3948 63.6035 -4.35537 55.6462 1.06591 44.8509L11.3812 24.3118C16.6607 17.2656 21.7146 25.9573 26.4363 35.6444ZM86.0236 44.8509C91.446 55.6462 74.6948 63.6035 69.2747 52.8085L60.6532 35.6444C65.375 25.9573 70.4287 17.2656 75.7095 24.3118L86.0236 44.8509Z" fill="#AC323F"/>
<path fill-rule="evenodd" clip-rule="evenodd" d="M26.4293 35.6474C21.7077 25.9603 16.6537 17.2685 11.373 24.3148L17.6107 11.8965C21.4191 3.96046 31.7258 4.03182 35.248 11.8965L43.5388 28.402L51.8275 11.8965C55.3486 4.03182 65.6553 3.96046 69.4649 11.8965L75.7025 24.3148C70.4217 17.2685 65.3668 25.9603 60.6462 35.6474L52.0258 52.8115C50.282 56.2815 46.9102 58.0173 43.5388 58.0173C40.1653 58.0173 36.7933 56.2815 35.0506 52.8115L26.4293 35.6474Z" fill="#F0555D"/>
<path fill-rule="evenodd" clip-rule="evenodd" d="M26.4293 35.6474C21.7077 25.9603 16.6537 17.2685 11.373 24.3148L17.6107 11.8965C21.4191 3.96046 31.7258 4.03182 35.248 11.8965L43.5388 28.402L51.8275 11.8965C55.3486 4.03182 65.6553 3.96046 69.4649 11.8965L75.7025 24.3148C70.4217 17.2685 65.3668 25.9603 60.6462 35.6474L52.0258 52.8115C50.282 56.2815 46.9102 58.0173 43.5388 58.0173C40.1653 58.0173 36.7933 56.2815 35.0506 52.8115L26.4293 35.6474Z" fill="#F0555D"/>
<path fill-rule="evenodd" clip-rule="evenodd" d="M130.345 11.0675V17.3547C123.255 24.271 110.414 27.6931 107.473 18.0989V11.0675C107.473 -3.68917 130.345 -3.68917 130.345 11.0675ZM130.345 46.6452V52.9324C130.345 67.6892 107.473 67.6892 107.473 52.9324V45.8999C110.414 36.3058 123.255 39.7278 130.345 46.6452Z" fill="#AC323F"/>
<path fill-rule="evenodd" clip-rule="evenodd" d="M130.345 17.3559L144.628 3.42469C155.329 -7.01043 171.502 8.76422 160.803 19.1994L147.678 32.0004L160.803 44.8003C171.502 55.2344 155.329 71.0089 144.628 60.5751L130.345 46.6464C123.255 39.7289 110.414 36.3049 107.473 45.9011V18.1001C110.414 27.6943 123.255 24.2724 130.345 17.3559Z" fill="#F0555D"/>
<path fill-rule="evenodd" clip-rule="evenodd" d="M190.15 32.6578C190.525 28.6562 187.501 25.1153 183.4 24.752C179.296 24.3866 175.668 27.3353 175.293 31.3362C176.031 23.4483 183.184 17.6377 191.271 18.3571C199.357 19.0765 205.315 26.0532 204.577 33.9416C203.478 45.714 192.8 54.3876 180.729 53.3151C168.657 52.2402 159.766 41.8265 160.865 30.0541C160.128 37.9406 166.085 44.9185 174.171 45.6368C182.259 46.355 189.414 40.5455 190.15 32.6578Z" fill="#F0555D"/>
<path fill-rule="evenodd" clip-rule="evenodd" d="M175.29 31.3186C174.916 35.3207 177.939 38.8604 182.04 39.2249C186.144 39.5905 189.772 36.6411 190.146 32.642C189.41 40.5274 182.256 46.3386 174.169 45.6187C166.082 44.9007 160.125 37.9233 160.863 30.0355C161.962 18.2628 172.641 9.58927 184.711 10.662C196.784 11.7357 205.675 22.1493 204.576 33.9242C205.311 26.0351 199.354 19.0596 191.268 18.3391C183.18 17.6204 176.028 23.4325 175.29 31.3186Z" fill="#AC323F"/>
<path d="M217.366 9.78353C219.12 10.8639 219.998 12.3994 219.998 14.3888C219.998 15.5924 219.66 16.7292 218.984 17.7975C218.308 18.8657 217.404 19.7194 216.271 20.358C215.136 20.9972 213.928 21.3157 212.643 21.3157C211.401 21.3157 210.215 21.0005 209.087 20.3696C207.957 19.7398 207.051 18.9027 206.365 17.8588C205.682 16.8144 205.34 15.7075 205.34 14.5363C205.34 13.8071 205.561 13.2155 206.001 12.7615C206.442 12.307 207.015 12.0804 207.719 12.0804C208.333 12.0804 208.84 12.2523 209.244 12.5962C209.545 12.8417 209.735 13.085 209.81 13.326C209.886 13.5682 209.944 13.9713 209.987 14.5363C210.029 15.0279 210.191 15.4487 210.471 15.8014C210.753 16.1537 211.094 16.4151 211.497 16.5877C211.909 16.7679 212.333 16.858 212.77 16.858C213.467 16.858 214.071 16.6446 214.583 16.2189C215.094 15.7937 215.351 15.1999 215.351 14.4374C215.351 13.8486 215.15 13.3001 214.746 12.7914C214.344 12.2844 213.848 11.9449 213.261 11.7734C212.614 11.5678 212.194 11.3743 212.001 11.189C211.808 11.0055 211.712 10.6875 211.712 10.2375C211.712 9.59058 211.917 9.16481 212.328 8.96081L213.16 8.60362C213.705 8.3006 213.978 7.82179 213.978 7.16713C213.978 6.75797 213.855 6.40965 213.606 6.12322C213.359 5.83628 213.004 5.69307 212.544 5.69307C211.804 5.69307 211.288 6.15973 210.994 7.09306C210.809 7.55144 210.534 7.90194 210.169 8.14304C209.804 8.38573 209.407 8.5052 208.979 8.5052C208.593 8.5052 208.217 8.40623 207.852 8.20496C207.487 8.0048 207.193 7.71951 206.971 7.35181C206.748 6.98299 206.637 6.56998 206.637 6.11105C206.637 5.53824 206.8 4.96046 207.128 4.37937C207.808 3.19171 208.887 2.28598 210.365 1.66456C211.053 1.39415 211.741 1.25928 212.429 1.25928C213.487 1.25928 214.495 1.50918 215.452 2.00844C216.401 2.5243 217.157 3.20052 217.724 4.03541C218.292 4.86977 218.575 5.74673 218.575 6.66345C218.575 7.73665 218.172 8.77613 217.366 9.78353Z" fill="#AC323F"/>
<path d="M217.368 9.75966C219.224 10.9611 219.273 13.0794 219.151 13.9463C218.983 15.1384 218.092 16.4643 216.799 17.1593C215.269 17.9798 213.077 17.6818 212.065 16.8342C211.937 16.7258 212.335 16.8342 212.772 16.8342C213.469 16.8342 214.073 16.6207 214.585 16.195C215.097 15.7698 215.353 15.176 215.353 14.4135C215.353 13.8247 215.152 13.2762 214.749 12.7675C214.346 12.2605 213.851 11.921 213.263 11.7496C212.617 11.5439 212.196 11.3504 212.003 11.1652C211.81 10.9816 211.714 10.6637 211.714 10.2136C211.714 9.56669 211.919 9.14092 212.33 8.93694L213.162 8.57975C213.707 8.27673 213.98 7.79792 213.98 7.14327C213.98 6.73408 213.857 6.38578 213.608 6.09935C213.361 5.81242 213.007 5.6692 212.546 5.6692C211.806 5.6692 211.291 6.13587 210.996 7.06917C210.811 7.52758 210.534 7.87477 210.171 8.11917C209.853 8.33315 209.453 8.47743 208.924 8.50124C208.775 8.50732 208.77 7.47333 208.842 7.01607C208.923 6.50576 209.513 4.70547 210.93 3.9618C211.552 3.63617 212.243 3.34366 212.929 3.29724C213.446 3.26183 214.551 3.29664 215.255 3.68974C216.198 4.21673 216.656 4.59044 217.222 5.42646C217.788 6.26135 218.113 7.80565 217.594 9.17188C217.538 9.31845 217.318 9.72703 217.368 9.75966Z" fill="#F0555D"/>
</g>
</svg>
