<svg width="240" height="104" viewBox="0 0 240 104" fill="none" xmlns="http://www.w3.org/2000/svg">
<g style="mix-blend-mode:luminosity">
<path d="M141.716 34.3391L136.216 4.67C135.434 0.437163 129.986 -0.938822 127.243 2.38978L98.8122 36.8684C93.0068 42.6082 97.1157 52.4237 105.32 52.4237H126.765C130.318 52.4237 133.605 51.2312 136.216 49.2393C140.762 45.7665 142.75 39.9217 141.716 34.3391Z" fill="url(#paint0_linear_212_2813)"/>
<path d="M141.834 35.0601C141.86 35.3222 141.874 35.5843 141.874 35.8595C141.874 40.8 137.818 44.81 132.821 44.81C129.998 44.81 127.493 43.552 125.836 41.5601L110.885 22.2305L103.397 12.5592C100.163 8.79817 94.7947 10.2921 93.7741 15.3112L90.5135 31.2597C89.6653 35.4008 90.0629 39.7516 91.9583 43.5258C94.5429 48.6497 99.2481 52.1356 104.656 52.3977C104.868 52.4239 105.08 52.4239 105.305 52.4239H126.764C129.044 52.4239 131.217 51.939 133.152 51.061C134.253 50.5761 135.273 49.9602 136.214 49.2395C140.562 45.924 142.55 40.4331 141.821 35.0732L141.834 35.0601Z" fill="url(#paint1_linear_212_2813)"/>
<path d="M22.0705 74.4453C20.7497 74.4453 19.5438 74.7374 18.4591 75.3152C17.4509 75.8549 16.6342 76.5915 16.0089 77.5249C15.5368 76.6804 14.8923 75.9756 14.0628 75.4359C13.0611 74.7755 11.785 74.4453 10.2281 74.4453C8.86904 74.4453 7.63759 74.7437 6.54012 75.3406C5.69788 75.7978 4.99602 76.3819 4.41538 77.0868V74.9215H0V94.6815H5.04068V82.7125C5.04068 81.5759 5.35332 80.6552 5.985 79.9377C6.61668 79.2266 7.45255 78.8646 8.49259 78.8646C9.53262 78.8646 10.4387 79.2266 11.0576 79.9504C11.6765 80.6743 11.9892 81.6902 11.9892 82.9982V94.6752H16.9915V82.7062C16.9915 81.9506 17.1383 81.2838 17.4254 80.6997C17.7126 80.1219 18.1145 79.671 18.6314 79.3472C19.1482 79.0234 19.7543 78.8646 20.4498 78.8646C21.5409 78.8646 22.3959 79.2266 23.0148 79.9504C23.6338 80.6743 23.94 81.6902 23.94 82.9982V94.6752H28.9424V81.6839C28.9424 79.525 28.3618 77.7789 27.2069 76.4391C26.0456 75.1057 24.3356 74.4326 22.0705 74.4326V74.4453Z" fill="white"/>
<path d="M45.3603 75.7079C43.8481 74.819 42.0871 74.3745 40.0899 74.3745C38.0928 74.3745 36.3956 74.8126 34.8834 75.6889C33.3776 76.5651 32.1908 77.7906 31.3358 79.359C30.4808 80.9273 30.0469 82.7433 30.0469 84.8006C30.0469 86.8578 30.468 88.6421 31.3039 90.2104C32.1461 91.7788 33.3201 93.0043 34.826 93.8996C36.3318 94.7885 38.0864 95.233 40.0836 95.233C42.0807 95.233 43.8162 94.7885 45.3348 93.9059C46.847 93.0233 48.0338 91.7978 48.8824 90.2295C49.7374 88.6611 50.1585 86.8515 50.1585 84.8069C50.1585 82.7623 49.7374 80.9654 48.8888 79.3971C48.0402 77.8287 46.8598 76.6032 45.3476 75.7079H45.3603ZM43.6886 88.9659C42.8974 90.0453 41.6979 90.5851 40.0963 90.5851C38.4948 90.5851 37.359 90.0644 36.5551 89.0231C35.7511 87.9817 35.3492 86.5721 35.3492 84.8069C35.3492 83.6576 35.515 82.6544 35.8532 81.7909C36.1914 80.9273 36.7082 80.2479 37.4037 79.759C38.1056 79.2701 38.9989 79.0288 40.0899 79.0288C41.6723 79.0288 42.8655 79.5558 43.6695 80.6035C44.4734 81.6512 44.8754 83.0544 44.8754 84.8133C44.8754 86.5721 44.4798 87.8992 43.6886 88.9786V88.9659Z" fill="white"/>
<path d="M70.1152 79.633C69.8791 78.7631 69.4899 77.9249 68.9475 77.1185C68.4052 76.3121 67.6395 75.6518 66.6569 75.1248C65.6743 74.5977 64.4045 74.3374 62.8477 74.3374C60.9016 74.3374 59.2809 74.7565 58.0048 75.601C57.405 75.9947 56.8754 76.4518 56.416 76.9661V74.9279H51.9688V94.6879H57.0413V84.6619C57.0413 83.43 57.1817 82.4395 57.4561 81.6966C57.7304 80.9537 58.0814 80.3886 58.5152 80.0013C58.9427 79.6139 59.4021 79.3599 59.8935 79.2266C60.3848 79.0933 60.8442 79.0234 61.2717 79.0234C62.3372 79.0234 63.1603 79.2583 63.7473 79.7346C64.328 80.2108 64.7491 80.8013 65.0043 81.5125C65.2595 82.2173 65.4127 82.9221 65.4637 83.6269C65.5148 84.3253 65.5403 84.9032 65.5403 85.354V94.6879H70.6129V83.6015C70.6129 83.2713 70.5873 82.7506 70.5363 82.0268C70.4853 81.3093 70.3449 80.5092 70.1152 79.6393V79.633Z" fill="white"/>
<path d="M88.6323 86.1916H91.0378C91.2483 83.7978 90.9995 81.7215 90.304 79.95C89.6021 78.1784 88.5238 76.8069 87.0691 75.8354C85.6079 74.8576 83.8405 74.3687 81.754 74.3687C79.7952 74.3687 78.0596 74.8131 76.5474 75.6957C75.0416 76.5783 73.8548 77.8228 72.9998 79.4166C72.1384 81.0167 71.7109 82.8962 71.7109 85.055C71.7109 87.0298 72.1512 88.7823 73.0253 90.3189C73.8995 91.8491 75.1182 93.0492 76.6687 93.9254C78.2191 94.7953 80.0121 95.2335 82.0475 95.2335C83.9617 95.2335 85.7227 94.7318 87.3306 93.735C88.9449 92.7317 90.1254 91.3348 90.8719 89.5252L85.8695 88.0965C85.4994 88.9029 84.9698 89.5188 84.268 89.9442C83.5661 90.3697 82.7302 90.5856 81.7476 90.5856C80.1908 90.5856 79.0103 90.0839 78.2064 89.0743C77.6194 88.3378 77.2493 87.3727 77.0898 86.1916H88.6195H88.6323ZM81.9773 78.6864C83.4385 78.6864 84.4849 79.1309 85.1293 80.0135C85.5505 80.5976 85.8312 81.4231 85.978 82.4898H77.2365C77.4343 81.5755 77.7534 80.8199 78.2191 80.2293C79.0231 79.2007 80.2737 78.6864 81.9773 78.6864Z" fill="white"/>
<path d="M100.799 88.3694L98.4061 94.5285L90.3984 74.9209H95.5795L100.799 88.3694Z" fill="white"/>
<path d="M125.815 75.727C124.404 74.8253 122.752 74.3745 120.85 74.3745C118.949 74.3745 117.373 74.8317 116.091 75.746C115.969 75.8286 115.854 75.9238 115.74 76.0127V74.9206H111.324V103.468H116.365V93.9885C117.654 94.8139 119.23 95.233 121.112 95.233C122.994 95.233 124.538 94.7758 125.91 93.8615C127.282 92.9471 128.354 91.7026 129.12 90.1279C129.885 88.5532 130.268 86.7816 130.268 84.8006C130.268 82.8195 129.879 80.9972 129.101 79.4288C128.322 77.8604 127.231 76.6286 125.821 75.7206L125.815 75.727ZM124.475 87.8293C124.143 88.7373 123.632 89.4612 122.95 89.9945C122.261 90.5343 121.38 90.801 120.302 90.801C119.223 90.801 118.292 90.5533 117.628 90.0517C116.958 89.5501 116.48 88.8516 116.186 87.95C115.893 87.0483 115.746 86.0006 115.746 84.8006C115.746 83.6005 115.893 82.5592 116.186 81.6512C116.48 80.7495 116.952 80.0447 117.59 79.5494C118.234 79.0478 119.077 78.8002 120.117 78.8002C121.233 78.8002 122.146 79.0732 122.867 79.6129C123.581 80.159 124.111 80.8829 124.456 81.7909C124.8 82.6988 124.972 83.7021 124.972 84.8006C124.972 85.8991 124.806 86.9213 124.475 87.8293Z" fill="white"/>
<path d="M137.471 67.7837H132.469V94.6806H137.471V67.7837Z" fill="white"/>
<path d="M156.635 77.9552C155.934 76.6408 154.906 75.7138 153.547 75.1741C152.188 74.6344 150.631 74.3677 148.877 74.3677C146.484 74.3677 144.595 74.882 143.211 75.9043C141.826 76.9266 140.882 78.26 140.378 79.8918L144.901 81.3205C145.221 80.4189 145.776 79.7902 146.573 79.4347C147.371 79.0791 148.136 78.9013 148.87 78.9013C150.197 78.9013 151.135 79.1743 151.703 79.7267C152.143 80.1585 152.411 80.7808 152.507 81.5935C151.665 81.7205 150.861 81.8412 150.102 81.9491C148.813 82.1396 147.664 82.3364 146.643 82.546C145.629 82.7555 144.748 82.9904 144.015 83.2571C142.949 83.6508 142.1 84.1334 141.469 84.7112C140.837 85.289 140.378 85.9557 140.097 86.7177C139.816 87.4733 139.676 88.3114 139.676 89.2258C139.676 90.3242 139.931 91.3275 140.441 92.2355C140.952 93.1435 141.698 93.8673 142.687 94.4134C143.676 94.9531 144.876 95.2261 146.299 95.2261C148.015 95.2261 149.432 94.9277 150.555 94.3372C151.442 93.8737 152.277 93.1689 153.062 92.2482V94.6801H157.439V82.6031C157.439 81.7015 157.401 80.8824 157.331 80.1522C157.254 79.422 157.025 78.6854 156.629 77.9552H156.635ZM151.965 88.6797C151.831 88.9591 151.576 89.3083 151.199 89.721C150.823 90.1338 150.325 90.502 149.693 90.8259C149.062 91.1497 148.29 91.3084 147.364 91.3084C146.79 91.3084 146.292 91.2259 145.878 91.0544C145.463 90.883 145.138 90.6354 144.914 90.3115C144.685 89.9877 144.576 89.6004 144.576 89.1496C144.576 88.8194 144.646 88.521 144.787 88.2543C144.927 87.9876 145.15 87.74 145.45 87.5114C145.75 87.2828 146.146 87.0732 146.637 86.8828C147.065 86.724 147.562 86.578 148.124 86.4446C148.685 86.3113 149.432 86.1589 150.351 85.9938C150.944 85.8859 151.652 85.7652 152.475 85.6255C152.463 85.9748 152.45 86.3621 152.424 86.8002C152.38 87.5114 152.233 88.14 151.971 88.6733L151.965 88.6797Z" fill="white"/>
<path d="M178.127 79.6325C177.891 78.7626 177.502 77.9244 176.959 77.118C176.411 76.3116 175.651 75.6513 174.669 75.1243C173.686 74.5972 172.416 74.3369 170.859 74.3369C168.907 74.3369 167.293 74.756 166.017 75.6005C165.417 75.9942 164.887 76.4513 164.428 76.9657V74.9274H159.98V94.6874H165.053V84.6614C165.053 83.4296 165.193 82.439 165.468 81.6961C165.742 80.9532 166.093 80.3881 166.527 80.0008C166.954 79.6134 167.414 79.3595 167.905 79.2261C168.396 79.0928 168.856 79.0229 169.283 79.0229C170.349 79.0229 171.172 79.2579 171.759 79.7341C172.34 80.2103 172.761 80.8008 173.016 81.512C173.271 82.2168 173.424 82.9216 173.475 83.6264C173.526 84.3248 173.552 84.9027 173.552 85.3535V94.6874H178.625V83.601C178.625 83.2708 178.599 82.7501 178.548 82.0263C178.497 81.3088 178.357 80.5087 178.127 79.6388V79.6325Z" fill="white"/>
<path d="M199.314 79.6325C199.078 78.7626 198.689 77.9244 198.147 77.118C197.598 76.3116 196.839 75.6513 195.856 75.1243C194.873 74.5972 193.604 74.3369 192.047 74.3369C190.094 74.3369 188.48 74.756 187.204 75.6005C186.604 75.9942 186.075 76.4513 185.615 76.9657V74.9274H181.168V94.6874H186.241V84.6614C186.241 83.4296 186.381 82.439 186.655 81.6961C186.93 80.9532 187.281 80.3881 187.714 80.0008C188.142 79.6134 188.601 79.3595 189.093 79.2261C189.584 79.0928 190.043 79.0229 190.471 79.0229C191.536 79.0229 192.36 79.2579 192.947 79.7341C193.527 80.2103 193.948 80.8008 194.204 81.512C194.459 82.2168 194.612 82.9216 194.663 83.6264C194.714 84.3248 194.74 84.9027 194.74 85.3535V94.6874H199.812V83.601C199.812 83.2708 199.787 82.7501 199.736 82.0263C199.684 81.3088 199.544 80.5087 199.314 79.6388V79.6325Z" fill="white"/>
<path d="M216.264 75.8344C214.803 74.8566 213.036 74.3677 210.949 74.3677C208.99 74.3677 207.255 74.8121 205.743 75.6947C204.237 76.5773 203.05 77.8219 202.195 79.4156C201.334 81.0157 200.906 82.8952 200.906 85.0541C200.906 87.0288 201.347 88.7813 202.221 90.3179C203.095 91.8482 204.314 93.0482 205.864 93.9245C207.414 94.7944 209.207 95.2325 211.243 95.2325C213.157 95.2325 214.918 94.7309 216.526 93.734C218.14 92.7307 219.321 91.3338 220.067 89.5242L215.065 88.0955C214.695 88.9019 214.165 89.5178 213.463 89.9433C212.761 90.3687 211.926 90.5846 210.943 90.5846C209.386 90.5846 208.206 90.083 207.402 89.0734C206.815 88.3368 206.445 87.3717 206.285 86.1906H220.227C220.437 83.7968 220.188 81.7205 219.493 79.949C218.791 78.1774 217.713 76.8059 216.258 75.8344H216.264ZM211.173 78.6918C212.634 78.6918 213.68 79.1362 214.325 80.0188C214.746 80.603 215.027 81.4284 215.173 82.4952H206.432C206.63 81.5808 206.949 80.8252 207.414 80.2347C208.218 79.2061 209.469 78.6918 211.173 78.6918Z" fill="white"/>
<path d="M234.959 68.3364V75.5686C233.722 74.7749 232.229 74.3749 230.474 74.3749C228.572 74.3749 226.92 74.8257 225.51 75.7274C224.1 76.629 223.009 77.8672 222.23 79.4355C221.452 81.0039 221.062 82.7945 221.062 84.8073C221.062 86.8201 221.445 88.5599 222.211 90.1346C222.977 91.7093 224.049 92.9539 225.42 93.8682C226.792 94.7825 228.394 95.2397 230.219 95.2397C232.19 95.2397 233.843 94.7825 235.164 93.8682C235.31 93.7666 235.451 93.6587 235.585 93.5507V94.6873H240V68.3364H234.959ZM235.144 87.9504C234.851 88.852 234.366 89.5568 233.702 90.0521C233.033 90.5537 232.139 90.8013 231.029 90.8013C229.919 90.8013 229.07 90.5347 228.381 89.9949C227.692 89.4552 227.188 88.7377 226.856 87.8297C226.524 86.9217 226.358 85.9121 226.358 84.801C226.358 83.6898 226.531 82.6992 226.875 81.7912C227.22 80.8833 227.749 80.1594 228.464 79.6133C229.179 79.0736 230.097 78.8006 231.214 78.8006C232.254 78.8006 233.096 79.0482 233.741 79.5498C234.385 80.0515 234.851 80.7499 235.144 81.6516C235.438 82.5532 235.585 83.6009 235.585 84.801C235.585 86.001 235.438 87.0487 235.144 87.9504Z" fill="white"/>
<path d="M110.99 74.9209L99.7729 103.469H95.1406L98.4075 94.5285L100.8 88.3694L105.994 74.9209H110.99Z" fill="#1DA1F8"/>
</g>
<defs>
<linearGradient id="paint0_linear_212_2813" x1="150.901" y1="6.92402" x2="122.505" y2="35.6441" gradientUnits="userSpaceOnUse">
<stop offset="0.17" stop-color="#61F3F6"/>
<stop offset="1" stop-color="#002FBE"/>
</linearGradient>
<linearGradient id="paint1_linear_212_2813" x1="90.0894" y1="31.4301" x2="141.98" y2="31.4301" gradientUnits="userSpaceOnUse">
<stop stop-color="#61F3F6"/>
<stop offset="1" stop-color="#1A5EED"/>
</linearGradient>
</defs>
</svg>
