<svg width="152" height="74" viewBox="0 0 152 74" fill="none" xmlns="http://www.w3.org/2000/svg">
<g style="mix-blend-mode:luminosity" clip-path="url(#clip0_212_2854)">
<path d="M66.2792 70.2457L66.1992 58.6201H67.4525L67.5325 70.2457H66.2792ZM70.088 70.3674C69.4957 70.371 68.913 70.2155 68.3992 69.9167C67.8774 69.622 67.4372 69.1988 67.1192 68.686C66.7837 68.147 66.6107 67.5203 66.6214 66.8829V66.8108L67.5103 66.7837V66.8468C67.5082 67.2722 67.632 67.6883 67.8658 68.0414C68.0896 68.3896 68.395 68.6761 68.7547 68.8754C69.2182 69.1292 69.7509 69.2225 70.2715 69.1412C70.7921 69.0598 71.2723 68.8082 71.6391 68.4246C72.0805 67.7805 72.3148 67.0139 72.31 66.2295C72.3053 65.4451 72.0616 64.6815 71.6124 64.043C71.3875 63.8116 71.1178 63.63 70.8202 63.5097C70.5226 63.3895 70.2037 63.3331 69.8836 63.3443C69.4751 63.3457 69.0739 63.4544 68.7192 63.6598C68.3598 63.8595 68.0545 64.1459 67.8303 64.4938C67.6085 64.8425 67.4954 65.2509 67.5058 65.6658H66.617C66.5983 65.0305 66.7636 64.4036 67.0925 63.8627C67.4034 63.3539 67.838 62.9347 68.3547 62.6456C68.8693 62.3527 69.449 62.1976 70.0391 62.1948C70.6633 62.1837 71.2783 62.3491 71.8152 62.6723C72.352 62.9955 72.7896 63.4639 73.079 64.025C73.4231 64.7063 73.5942 65.4639 73.5768 66.2293C73.6127 67.0061 73.4601 67.7801 73.1324 68.4832C72.8498 69.0629 72.4105 69.5492 71.8657 69.8851C71.3279 70.2079 70.7129 70.3748 70.088 70.3674Z" fill="#CC43FF"/>
<path d="M75.3241 73.5129C75.1443 73.5146 74.9647 73.504 74.7863 73.4814C74.6839 73.4718 74.5827 73.4521 74.4841 73.4228V72.3229C74.5851 72.3629 74.6915 72.3872 74.7996 72.395C74.9471 72.4132 75.0955 72.4222 75.2441 72.422C75.521 72.4286 75.7945 72.3585 76.0352 72.2192C76.254 72.0844 76.4383 71.8991 76.5729 71.6782C76.7239 71.4397 76.8435 71.182 76.9285 70.9119L77.1596 70.2087L74.4219 62.284H75.7285L77.9507 69.0727H77.7729L79.8395 62.2524H81.1239L78.3284 70.8488C78.1796 71.3096 77.9877 71.7549 77.7551 72.1786C77.5418 72.572 77.2366 72.9063 76.8662 73.1523C76.3978 73.4224 75.8618 73.5477 75.3241 73.5129Z" fill="#CC43FF"/>
<path d="M14.5548 49.3019C13.8152 49.2984 13.1049 49.0082 12.5695 48.4907C12.034 47.9732 11.7139 47.2677 11.6747 46.5186C11.6355 45.7695 11.8802 45.0336 12.3586 44.4615C12.8371 43.8895 13.513 43.5246 14.2481 43.4417C15.9612 43.2597 17.565 42.5012 18.8035 41.287C19.498 40.6198 20.0512 39.816 20.4292 38.9247C20.8072 38.0334 21.0022 37.0733 21.0022 36.103C21.0022 35.1328 20.8072 34.1727 20.4292 33.2814C20.0512 32.3901 19.498 31.5863 18.8035 30.9191C17.3539 29.5067 15.4181 28.7239 13.4081 28.7373C11.3942 28.7281 9.45642 29.5175 8.00828 30.9371C7.31835 31.6061 6.76926 32.4099 6.39421 33.3002C6.01915 34.1904 5.8259 35.1485 5.82613 36.1166C5.8273 36.5027 5.75332 36.8853 5.60844 37.2423C5.46357 37.5994 5.25064 37.924 4.98186 38.1975C4.71308 38.4709 4.39374 38.6879 4.04213 38.8359C3.69053 38.984 3.31357 39.0602 2.93288 39.0602C2.55256 39.0607 2.17585 38.9853 1.82431 38.8381C1.47278 38.6909 1.1533 38.4748 0.884167 38.2022C0.615033 37.9297 0.401522 37.606 0.255845 37.2496C0.110168 36.8933 0.035182 36.5113 0.0351825 36.1256C0.0316787 34.3687 0.379179 32.6293 1.05671 31.0124C1.73424 29.3955 2.72776 27.9345 3.97729 26.7178C6.50425 24.2324 9.88822 22.8463 13.4081 22.8546C16.9217 22.839 20.3024 24.2154 22.8301 26.6908C24.0825 27.9041 25.0798 29.362 25.762 30.9767C26.4442 32.5913 26.7972 34.3293 26.7997 36.086C26.8022 37.8427 26.4542 39.5817 25.7765 41.1983C25.0989 42.8149 24.1057 44.2758 22.8567 45.4928C20.6802 47.6225 17.8646 48.9536 14.857 49.2748C14.757 49.2908 14.656 49.2998 14.5548 49.3019Z" fill="white"/>
<path d="M2.9773 72.0167C2.59698 72.0173 2.22027 71.9418 1.86873 71.7946C1.5172 71.6474 1.19772 71.4314 0.928587 71.1588C0.659453 70.8862 0.445942 70.5625 0.300265 70.2062C0.154588 69.8499 0.0796051 69.4679 0.0796055 69.0821L0.0351597 36.0129C0.0345756 35.627 0.108949 35.2447 0.254032 34.8879C0.399116 34.531 0.61207 34.2067 0.880733 33.9334C1.1494 33.66 1.46851 33.443 1.81985 33.2948C2.17119 33.1465 2.54788 33.0699 2.92841 33.0693C3.30873 33.0687 3.68543 33.1442 4.03697 33.2914C4.38851 33.4386 4.70799 33.6547 4.97712 33.9273C5.24625 34.1998 5.45976 34.5235 5.60544 34.8799C5.75112 35.2362 5.82611 35.6182 5.8261 36.0039L5.87055 69.0731C5.87113 69.4595 5.79661 69.8421 5.65125 70.1992C5.50589 70.5563 5.29254 70.8809 5.0234 71.1543C4.75427 71.4277 4.43464 71.6446 4.08278 71.7926C3.73093 71.9405 3.35376 72.0167 2.97285 72.0167H2.9773Z" fill="white"/>
<path d="M117.666 49.1533C115.039 49.1553 112.468 48.3816 110.266 46.9264C108.813 45.9723 107.564 44.7296 106.597 43.2732C105.629 41.8167 104.962 40.1767 104.636 38.4518C103.28 31.2799 108.075 24.2928 115.324 22.8818C118.434 22.2709 121.658 22.7828 124.435 24.3288C126.383 25.4448 128.015 27.0517 129.172 28.9943C130.329 30.937 130.972 33.1495 131.039 35.418L131.093 37.0318C131.337 40.4803 134.701 43.2751 138.608 43.2751C142.794 43.2751 146.194 39.9574 146.19 35.8959L146.145 2.95287C146.145 2.56691 146.219 2.1846 146.364 1.82779C146.509 1.47098 146.722 1.14664 146.991 0.873305C147.26 0.599967 147.579 0.382979 147.93 0.234729C148.281 0.0864796 148.658 0.00987232 149.039 0.00928081C149.419 0.00868825 149.796 0.0841547 150.147 0.231366C150.499 0.378577 150.818 0.594641 151.087 0.8672C151.357 1.13976 151.57 1.46347 151.716 1.8198C151.861 2.17613 151.936 2.5581 151.936 2.94385L151.981 35.8868C151.981 43.1895 145.994 49.1443 138.612 49.1533H138.59C131.555 49.1533 125.702 43.9828 125.288 37.3744V37.2843L125.23 35.6209C125.202 34.3702 124.857 33.1479 124.228 32.0718C123.599 30.9956 122.708 30.1019 121.639 29.4767C120.046 28.5953 118.199 28.3052 116.417 28.6563C112.306 29.4542 109.573 33.3535 110.329 37.3429C110.509 38.2935 110.878 39.1971 111.413 39.999C111.947 40.801 112.637 41.4845 113.44 42.0084C114.887 42.9631 116.609 43.398 118.328 43.2436C118.708 43.211 119.09 43.2546 119.453 43.3717C119.815 43.4889 120.152 43.6774 120.443 43.9264C120.734 44.1755 120.973 44.4803 121.148 44.8233C121.323 45.1663 121.43 45.5409 121.462 45.9257C121.494 46.3105 121.451 46.6979 121.335 47.0659C121.22 47.4338 121.034 47.7751 120.788 48.0702C120.543 48.3653 120.242 48.6085 119.904 48.7858C119.566 48.9631 119.197 49.0711 118.817 49.1037C118.426 49.1398 118.044 49.1533 117.666 49.1533Z" fill="white"/>
<path d="M45.9683 49.2565C42.4559 49.2733 39.0761 47.8966 36.5508 45.4203C35.2983 44.2092 34.3009 42.7531 33.6188 41.14C32.9366 39.5269 32.584 37.7903 32.582 36.0351L32.6265 30.4229L32.582 2.95238C32.5809 2.56625 32.6548 2.18368 32.7997 1.8266C32.9446 1.46952 33.1575 1.14495 33.4263 0.871489C33.6951 0.598033 34.0144 0.38107 34.366 0.23303C34.7176 0.0849905 35.0946 0.00878724 35.4753 0.00878906C36.243 0.00878815 36.9794 0.317822 37.5227 0.868033C38.066 1.41824 38.3718 2.16465 38.373 2.94336L38.4174 30.4409L38.373 36.0531C38.379 37.0172 38.5769 37.9702 38.955 38.8548C39.333 39.7394 39.8833 40.5375 40.5729 41.201C42.0212 42.6127 43.9553 43.3955 45.9639 43.3828C46.6909 43.4407 47.3697 43.7745 47.8647 44.3176C48.3598 44.8607 48.6348 45.5732 48.6348 46.3129C48.6348 47.0526 48.3598 47.765 47.8647 48.3081C47.3697 48.8512 46.6909 49.1851 45.9639 49.2429L45.9683 49.2565Z" fill="white"/>
<path d="M65.5582 49.2566C62.0457 49.2734 58.6659 47.8967 56.1407 45.4204C54.8882 44.2093 53.8907 42.7532 53.2086 41.1401C52.5265 39.527 52.1738 37.7904 52.1719 36.0352V25.7259C52.1707 25.3397 52.2447 24.9572 52.3896 24.6001C52.5344 24.243 52.7474 23.9184 53.0161 23.645C53.2849 23.3715 53.6043 23.1546 53.9559 23.0065C54.3075 22.8585 54.6844 22.7823 55.0651 22.7823C55.4455 22.7817 55.8222 22.8571 56.1737 23.0044C56.5252 23.1516 56.8447 23.3676 57.1138 23.6402C57.383 23.9128 57.5965 24.2365 57.7422 24.5928C57.8878 24.9491 57.9628 25.3311 57.9628 25.7169V36.0262C57.9686 36.9964 58.1685 37.9553 58.5505 38.8449C58.9325 39.7344 59.4885 40.536 60.185 41.2011C61.6332 42.6128 63.5674 43.3956 65.5759 43.3829C67.5911 43.3897 69.5291 42.597 70.9758 41.1741C71.6653 40.5048 72.2141 39.7009 72.5892 38.8107C72.9642 37.9206 73.1577 36.9626 73.1579 35.9946V25.6853C73.1574 25.2993 73.2317 24.917 73.3768 24.5602C73.5219 24.2034 73.7348 23.8791 74.0035 23.6057C74.2722 23.3324 74.5913 23.1154 74.9426 22.9672C75.294 22.8189 75.6707 22.7423 76.0512 22.7417C76.4315 22.7411 76.8082 22.8166 77.1598 22.9638C77.5113 23.111 77.8308 23.3271 78.0999 23.5996C78.369 23.8722 78.5826 24.1959 78.7282 24.5522C78.8739 24.9086 78.9489 25.2905 78.9489 25.6763V35.9856C78.9524 37.7425 78.6049 39.4819 77.9273 41.0988C77.2498 42.7157 76.2563 44.1767 75.0068 45.3934C72.4798 47.8787 69.0958 49.2649 65.5759 49.2566H65.5582Z" fill="white"/>
<path d="M87.7024 49.2264C87.3221 49.227 86.9454 49.1516 86.5938 49.0044C86.2423 48.8571 85.9228 48.6411 85.6537 48.3685C85.3846 48.096 85.1711 47.7723 85.0254 47.4159C84.8797 47.0596 84.8047 46.6776 84.8047 46.2919V35.9825C84.8018 34.2242 85.1504 32.4836 85.8295 30.8658C86.5085 29.248 87.504 27.7867 88.7557 26.5703C91.2827 24.0849 94.6666 22.6987 98.1865 22.7071C98.9136 22.765 99.5923 23.0988 100.087 23.6419C100.582 24.185 100.857 24.8975 100.857 25.6371C100.857 26.3768 100.582 27.0893 100.087 27.6324C99.5923 28.1755 98.9136 28.5093 98.1865 28.5672C96.1587 28.5557 94.2079 29.354 92.7556 30.7896C92.0657 31.4585 91.5166 32.2624 91.1415 33.1526C90.7665 34.0428 90.5732 35.0009 90.5734 35.969V46.2783C90.5723 47.0591 90.2663 47.8076 89.7224 48.3601C89.1785 48.9125 88.441 49.2241 87.6713 49.2264H87.7024Z" fill="white"/>
<path d="M103.655 60.5533C103.587 60.5487 103.519 60.5487 103.451 60.5533C102.65 60.5528 101.867 60.7894 101.197 61.2339L101.162 61.2114V60.7606H99.0195V70.0827H100.797H101.117V63.1182C101.648 62.7027 102.3 62.4761 102.971 62.4736C103.13 62.47 103.29 62.4852 103.446 62.5187C104.49 62.7666 104.868 63.6456 104.868 64.5742V70.0692H106.979V64.1865C106.979 62.992 106.642 62.0318 105.917 61.4233C105.276 60.8919 104.482 60.5865 103.655 60.5533Z" fill="#CC43FF"/>
<path d="M95.3281 60.7441V70.0753H97.4436V60.7441H95.3281Z" fill="#CC43FF"/>
<path d="M112.59 60.5405C110.195 60.5405 108.102 62.4744 108.102 65.427C108.101 65.7441 108.127 66.0607 108.177 66.3736C108.177 66.4863 108.217 66.5945 108.244 66.7027L108.27 66.8109L108.297 66.9191C108.324 67.0092 108.35 67.1039 108.382 67.1895C108.675 68.0854 109.238 68.8654 109.991 69.4194C110.745 69.9734 111.651 70.2735 112.581 70.2774H112.75C113.475 70.2646 114.182 70.0468 114.791 69.6486C115.4 69.2504 115.888 68.6876 116.199 68.0235C116.295 67.8228 116.375 67.6148 116.439 67.4014H114.528C114.288 67.7873 113.936 68.0889 113.521 68.2655C113.106 68.442 112.648 68.485 112.208 68.3886C111.732 68.2982 111.297 68.057 110.965 67.6998C110.633 67.3426 110.421 66.8878 110.359 66.4007C110.337 66.279 110.319 66.1617 110.306 66.04H116.821C116.858 65.732 116.876 65.4218 116.875 65.1114C116.866 62.1137 114.772 60.5405 112.59 60.5405ZM110.301 64.4353C110.37 63.8722 110.638 63.3538 111.056 62.977C111.474 62.6002 112.013 62.3911 112.573 62.3887C113.137 62.3726 113.687 62.5752 114.11 62.9553C114.532 63.3355 114.796 63.8647 114.848 64.4353H110.301Z" fill="#CC43FF"/>
<path d="M89.3881 60.7441H85.3438V74.0016H87.5081V69.5929H87.5437C88.2343 70.0522 89.0423 70.2966 89.8681 70.2962C92.1569 70.2962 94.0902 68.439 94.0902 65.5765C94.0902 62.714 92.108 60.7441 89.3881 60.7441ZM89.3881 68.3037C88.7014 68.2972 88.0354 68.0647 87.4904 67.6411V62.66H89.2992C90.9303 62.66 91.8947 63.7914 91.8947 65.4413C91.8947 67.0911 90.9747 68.3037 89.4059 68.3037H89.3881Z" fill="#CC43FF"/>
<path d="M139.583 60.5434C138.775 60.542 137.984 60.7801 137.307 61.2285H137.272V56.9326H135.156V70.0864H139.112C141.778 70.0864 143.712 68.0308 143.712 65.1774C143.712 62.3239 141.823 60.5434 139.583 60.5434ZM139.041 68.2066H137.263V63.1173C137.795 62.704 138.446 62.4763 139.116 62.4682C140.636 62.4682 141.565 63.6718 141.565 65.2675C141.565 66.8633 140.636 68.1931 139.041 68.1931V68.2066Z" fill="#CC43FF"/>
<path d="M149.196 64.4848C147.921 64.2008 146.836 64.2188 146.836 63.3488C146.836 62.7042 147.432 62.4202 148.343 62.4202C149.466 62.4559 150.561 62.7818 151.525 63.3669V61.2797C150.537 60.7816 149.446 60.5282 148.343 60.5405C146.281 60.5405 144.721 61.5637 144.703 63.5156C144.703 65.2015 145.823 65.8281 147.467 66.2203C148.779 66.5223 149.881 66.4862 149.881 67.4149C149.881 68.1181 149.267 68.4201 148.307 68.4201C147.12 68.3911 145.964 68.0308 144.965 67.3788V69.52C145.992 70.0392 147.125 70.3049 148.272 70.2953C150.303 70.2953 152.014 69.3307 152.014 67.2255C152.001 65.4314 150.827 64.886 149.196 64.4848Z" fill="#CC43FF"/>
<path d="M131.485 61.2101L131.45 61.2327C130.631 60.6932 129.651 60.4619 128.681 60.579C126.174 60.9306 124.939 63.2522 124.806 64.9291C124.693 65.9173 124.879 66.9169 125.339 67.7952C125.8 68.6736 126.513 69.3892 127.383 69.8471C128.025 70.1616 128.737 70.3024 129.449 70.2558C130.16 70.2092 130.848 69.9768 131.445 69.5811L131.481 69.6037V70.077H133.601V60.7368H131.481V61.1876L131.485 61.2101ZM131.485 67.6969C130.897 68.1518 130.166 68.3759 129.428 68.3279C128.839 68.2692 128.291 67.9979 127.883 67.5635C127.475 67.1291 127.235 66.5605 127.205 65.9614C127.099 65.0868 127.205 63.4821 128.428 62.8059C129.996 61.9314 131.485 63.135 131.485 63.135V67.6969Z" fill="#CC43FF"/>
<path d="M123.009 67.8405V56.9136H120.898V67.9441C120.898 69.9231 122.258 70.0763 122.676 70.0763H124.427V68.2101H123.018" fill="#CC43FF"/>
<path d="M95.3398 58.5024H97.4509V60.7428L98.9531 59.1515V56.9111H96.842L95.3398 58.5024Z" fill="#CC43FF"/>
</g>
<defs>
<clipPath id="clip0_212_2854">
<rect width="152" height="74" fill="white"/>
</clipPath>
</defs>
</svg>
