<svg width="78" height="64" viewBox="0 0 78 64" fill="none" xmlns="http://www.w3.org/2000/svg">
<g style="mix-blend-mode:luminosity" clip-path="url(#clip0_212_2802)">
<path fill-rule="evenodd" clip-rule="evenodd" d="M53.8175 42.8616H68.6761V0.892193H53.8193V42.8651L53.8175 42.8616ZM34.1058 0.892193L24.4852 40.0037L14.8664 0.890625H0.0078125L10.3312 42.8635H38.6429L48.9629 0.890625H34.1058V0.892193Z" fill="white"/>
<path fill-rule="evenodd" clip-rule="evenodd" d="M69.3376 55.8707C69.3376 60.361 65.7167 64.0002 61.2489 64.0002C56.7811 64.0002 53.1602 60.361 53.1602 55.8707C53.1602 51.3823 56.7811 47.7412 61.2489 47.7412C65.7167 47.7412 69.3376 51.3804 69.3376 55.8707Z" fill="#FFD300"/>
<path d="M72.1003 3.82287V0.451446H70.8457V0.000627008H73.8618V0.451446H72.6034V3.82287H72.1003ZM74.3615 3.82287V0.000313504H75.1201L76.0194 2.70711C76.1027 2.95917 76.1639 3.1479 76.2007 3.27236C76.245 3.13379 76.3117 2.92938 76.404 2.65946L77.3143 0H77.9918V3.82256H77.507V0.623246L76.4006 3.82287H75.9474L74.8462 0.568383V3.82287H74.3615Z" fill="white"/>
</g>
<defs>
<clipPath id="clip0_212_2802">
<rect width="78" height="64" fill="white"/>
</clipPath>
</defs>
</svg>
